<svg width="48" height="48" viewBox="0 0 48 48" fill="none" xmlns="http://www.w3.org/2000/svg">
<path fill-rule="evenodd" clip-rule="evenodd" d="M0 24C0 37.2548 10.7452 48 24 48C37.2548 48 48 37.2548 48 24C48 10.7452 37.2548 0 24 0C10.7452 0 0 10.7452 0 24ZM19.6001 35L20.0084 28.8822L20.0081 28.882L31.137 18.839C31.6254 18.4055 31.0303 18.1941 30.3819 18.5873L16.6473 27.2523L10.7147 25.4006C9.43356 25.0084 9.42436 24.128 11.0024 23.495L34.1204 14.5808C35.1762 14.1015 36.1953 14.8344 35.7923 16.4505L31.8553 35.0031C31.5803 36.3215 30.7838 36.6368 29.6801 36.0278L23.6828 31.5969L20.8001 34.4C20.791 34.4088 20.7819 34.4176 20.7729 34.4264C20.4505 34.7403 20.1838 35 19.6001 35Z" fill="white"/>
</svg>
