<svg width="48" height="48" viewBox="0 0 48 48" fill="none" xmlns="http://www.w3.org/2000/svg">
<path fill-rule="evenodd" clip-rule="evenodd" d="M24 48C37.2548 48 48 37.2548 48 24C48 10.7452 37.2548 0 24 0C10.7452 0 0 10.7452 0 24C0 37.2548 10.7452 48 24 48ZM28.7066 11.0186C30.3389 11.6954 31.8206 12.6894 33.066 13.943C34.3175 15.1894 35.3095 16.6716 35.9848 18.3038C36.66 19.936 37.005 21.6858 36.9999 23.4521C36.997 30.8647 30.965 36.8952 23.5569 36.8952H23.5509C21.3064 36.8942 19.0979 36.3315 17.1266 35.2584L10 37.1288L11.9063 30.1639C10.7308 28.1243 10.1123 25.8122 10.1123 23.4431C10.1153 16.0305 16.1472 10 23.5569 10C25.3239 9.99555 27.0743 10.3417 28.7066 11.0186ZM23.5524 34.6264H23.5569C29.7146 34.6264 34.7267 29.6128 34.7297 23.4521C34.7342 21.9838 34.4476 20.5291 33.8865 19.1722C33.3254 17.8153 32.5009 16.5831 31.4607 15.5468C30.426 14.5055 29.1951 13.6797 27.8392 13.1173C26.4833 12.5549 25.0293 12.267 23.5614 12.2703C17.3977 12.2703 12.3855 17.2824 12.3825 23.4431C12.3799 25.5468 12.9722 27.6083 14.0912 29.3897L14.3562 29.812L13.2286 33.9346L17.4576 32.825L17.8649 33.0675C19.5865 34.0882 21.551 34.6267 23.5524 34.6264ZM27.3905 25.1637C27.699 25.2761 29.3492 26.0877 29.6861 26.2569C29.7512 26.2896 29.8122 26.3192 29.8689 26.3466C30.1028 26.46 30.2626 26.5374 30.3301 26.6508C30.4139 26.7915 30.4139 27.4639 30.1339 28.2486C29.8539 29.0333 28.5121 29.7491 27.8667 29.8449C27.2872 29.9303 26.5549 29.9677 25.7507 29.7116C25.264 29.5559 24.6381 29.3493 23.8354 29.0033C20.6833 27.6416 18.5534 24.5853 18.1546 24.0129C18.1271 23.9734 18.1078 23.9458 18.097 23.9313L18.0926 23.9254C17.9094 23.6802 16.7253 22.0951 16.7253 20.4556C16.7253 18.9085 17.4845 18.0984 17.8348 17.7247C17.8589 17.699 17.881 17.6754 17.9008 17.6538C18.0134 17.5259 18.1512 17.4226 18.3055 17.3504C18.4599 17.2783 18.6275 17.2388 18.7978 17.2345C19.012 17.2337 19.2262 17.2377 19.4402 17.2465C19.4639 17.2475 19.4884 17.2473 19.5137 17.247C19.7101 17.2452 19.9549 17.243 20.195 17.82C20.2889 18.0455 20.4269 18.3813 20.5721 18.7344C20.8598 19.4343 21.1755 20.2024 21.2313 20.3148C21.3166 20.4825 21.372 20.6787 21.2597 20.9033C21.2427 20.9374 21.227 20.9695 21.2119 21.0002C21.128 21.1715 21.0666 21.297 20.9243 21.4634C20.8684 21.5288 20.8106 21.5994 20.7529 21.6699C20.6374 21.811 20.5219 21.9521 20.4211 22.0519C20.2519 22.2197 20.0767 22.4008 20.2729 22.7378C20.469 23.0747 21.1429 24.1739 22.1417 25.0649C23.2159 26.0225 24.1494 26.4272 24.622 26.6321C24.714 26.672 24.7885 26.7043 24.8432 26.7316C25.1787 26.8993 25.3748 26.8724 25.571 26.6478C25.7672 26.4231 26.4111 25.6669 26.6357 25.3315C26.8604 24.996 27.0835 25.0514 27.3905 25.1637Z" fill="white"/>
</svg>
