<svg width="48" height="48" viewBox="0 0 48 48" fill="none" xmlns="http://www.w3.org/2000/svg">
<path fill-rule="evenodd" clip-rule="evenodd" d="M24 48C37.2548 48 48 37.2548 48 24C48 10.7452 37.2548 0 24 0C10.7452 0 0 10.7452 0 24C0 37.2548 10.7452 48 24 48ZM15.5431 24.5C15.5431 20.0989 19.095 16.547 23.4961 16.547C27.8972 16.547 31.4491 20.0989 31.4491 24.5C31.4491 28.9011 27.8972 32.453 23.4961 32.453C19.095 32.453 15.5431 28.9011 15.5431 24.5ZM18.3273 24.5C18.3273 27.3462 20.65 29.6689 23.4961 29.6689C26.3423 29.6689 28.665 27.3462 28.665 24.5C28.665 21.6538 26.3423 19.3311 23.4961 19.3311C20.65 19.3311 18.3273 21.6538 18.3273 24.5ZM29.9175 16.2252C29.9175 15.1976 30.7473 14.3678 31.7748 14.3678C32.0188 14.3675 32.2605 14.4153 32.486 14.5085C32.7115 14.6018 32.9164 14.7386 33.0889 14.9111C33.2614 15.0836 33.3982 15.2885 33.4915 15.514C33.5847 15.7395 33.6325 15.9812 33.6322 16.2252C33.6322 17.2566 32.8024 18.0825 31.7748 18.0825C30.7473 18.0825 29.9175 17.2527 29.9175 16.2252ZM38.9994 23.717C38.9991 23.9777 38.9988 24.2387 38.9988 24.5C38.9988 24.7922 38.9993 25.0839 38.9997 25.3755C39.0025 27.2197 39.0052 29.0531 38.898 30.8981C38.7778 33.3797 38.2156 35.5784 36.397 37.397C34.5822 39.2117 32.3797 39.7778 29.8981 39.898C28.0223 40.0036 26.1584 40.0015 24.2829 39.9994C24.0222 39.9991 23.7612 39.9988 23.5 39.9988C23.2393 39.9988 22.9788 39.9991 22.7185 39.9994C20.8455 40.0015 18.9812 40.0036 17.1019 39.898C14.6203 39.7778 12.4216 39.2156 10.603 37.397C8.78831 35.5822 8.22218 33.3797 8.10197 30.8981C7.99643 29.0222 7.9985 27.1553 8.00058 25.2816C8.00086 25.0212 8.00115 24.7607 8.00115 24.5C8.00115 24.2393 8.00086 23.9788 8.00058 23.7185C7.9985 21.8455 7.99643 19.9812 8.10197 18.1019C8.22218 15.6203 8.78443 13.4216 10.603 11.603C12.4178 9.78831 14.6203 9.22218 17.1019 9.10197C18.9777 8.99644 20.8415 8.9985 22.717 9.00058C22.9778 9.00086 23.2387 9.00115 23.5 9.00115C23.7607 9.00115 24.0212 9.00086 24.2815 9.00058C26.1545 8.9985 28.0188 8.99643 29.8981 9.10197C32.3797 9.22218 34.5784 9.78443 36.397 11.603C38.2117 13.4178 38.7778 15.6203 38.898 18.1019C39.0036 19.9777 39.0015 21.8415 38.9994 23.717ZM34.4155 35.4194C34.9622 34.8765 35.3035 34.3492 35.5865 33.6434C36.2835 31.8893 36.2463 28.0616 36.2222 25.5863C36.2183 25.1835 36.2147 24.8164 36.2147 24.5C36.2147 24.1826 36.2183 23.8142 36.2223 23.4098C36.2464 20.9337 36.2837 17.106 35.5904 15.3527C35.3074 14.647 34.9661 14.1235 34.4194 13.5767C33.8765 13.03 33.3492 12.6888 32.6434 12.4057C30.8902 11.7124 27.0625 11.7497 24.5863 11.7739C24.1819 11.7778 23.8135 11.7814 23.4961 11.7814C23.1787 11.7814 22.8104 11.7778 22.4059 11.7739C19.9298 11.7497 16.1021 11.7124 14.3488 12.4057C13.6431 12.6888 13.1196 13.0339 12.5729 13.5767C12.0261 14.1196 11.6849 14.647 11.4018 15.3527C10.7085 17.106 10.7458 20.9337 10.77 23.4098C10.7739 23.8142 10.7775 24.1826 10.7775 24.5C10.7775 24.8174 10.7739 25.1858 10.77 25.5901C10.7458 28.0655 10.7085 31.8907 11.4018 33.6473C11.6849 34.353 12.0261 34.8765 12.5729 35.4233C13.1157 35.97 13.6431 36.3112 14.3488 36.5943C16.1021 37.2876 19.9298 37.2503 22.4059 37.2261C22.8104 37.2222 23.1787 37.2186 23.4961 37.2186C23.8126 37.2186 24.1796 37.2222 24.5824 37.2261C27.0577 37.2502 30.8854 37.2874 32.6396 36.5904C33.3453 36.3074 33.8688 35.9661 34.4155 35.4194Z" fill="white"/>
</svg>
