<svg width="232" height="60" viewBox="0 0 232 60" fill="none" xmlns="http://www.w3.org/2000/svg">
<path d="M71.6073 12.8278H76.0056C77.9303 12.8278 79.3663 13.1963 80.3137 13.9331C81.261 14.6548 81.7347 15.9029 81.7347 17.6772C81.7347 18.8351 81.5617 19.7824 81.2159 20.5192C80.8851 21.241 80.3062 21.7673 79.4791 22.0981L82.0279 31.0977H78.6897L76.5018 22.7296H74.923V31.0977H71.6073V12.8278ZM75.9831 20.6545C76.9304 20.6545 77.5995 20.4365 77.9905 20.0004C78.3965 19.5644 78.5995 18.8501 78.5995 17.8577C78.5995 16.8953 78.419 16.1961 78.0581 15.76C77.7123 15.324 77.0807 15.1059 76.1635 15.1059H74.923V20.6545H75.9831ZM87.9948 31.3007C86.5513 31.3007 85.4912 30.9022 84.8145 30.1052C84.1379 29.2932 83.7995 28.0978 83.7995 26.5189V22.6394C83.7995 21.0455 84.1379 19.8501 84.8145 19.0531C85.5062 18.2562 86.5663 17.8577 87.9948 17.8577C89.4684 17.8577 90.506 18.2712 91.1075 19.0982C91.724 19.9253 92.0322 21.1733 92.0322 22.8424V24.7145H86.8445V27.2858C86.8445 27.9174 86.9347 28.376 87.1152 28.6617C87.3106 28.9474 87.6114 29.0902 88.0174 29.0902C88.4083 29.0902 88.6865 28.9549 88.8519 28.6842C89.0324 28.3985 89.1226 27.97 89.1226 27.3986V26.2934H92.0097V27.1956C92.0097 28.5339 91.6713 29.5564 90.9947 30.2631C90.318 30.9548 89.3181 31.3007 87.9948 31.3007ZM89.1226 23.2033V21.9628C89.1226 21.2861 89.0399 20.8049 88.8745 20.5192C88.7091 20.2185 88.4158 20.0681 87.9948 20.0681C87.5587 20.0681 87.258 20.226 87.0926 20.5418C86.9272 20.8575 86.8445 21.444 86.8445 22.3011V23.2033H89.1226ZM94.1138 18.0607H97.0686V19.211C97.9407 18.2938 98.9632 17.8351 100.136 17.8351C100.662 17.8351 101.113 17.9705 101.489 18.2411C101.865 18.4968 102.144 18.8877 102.324 19.414C103.226 18.3614 104.324 17.8351 105.617 17.8351C106.339 17.8351 106.918 18.0983 107.354 18.6246C107.805 19.1509 108.03 19.9102 108.03 20.9027V31.0977H105.098V21.1959C105.098 20.7147 105.016 20.3764 104.85 20.1809C104.7 19.9854 104.467 19.8877 104.151 19.8877C103.91 19.8877 103.64 19.9553 103.339 20.0907C103.053 20.226 102.79 20.414 102.55 20.6545V20.9027V31.0977H99.6399V21.1959C99.6399 20.7147 99.5572 20.3764 99.3918 20.1809C99.2264 19.9854 98.9858 19.8877 98.67 19.8877C98.4294 19.8877 98.1663 19.9553 97.8806 20.0907C97.5949 20.226 97.3242 20.414 97.0686 20.6545V31.0977H94.1138V18.0607ZM114.251 31.3007C112.852 31.3007 111.807 30.9172 111.115 30.1503C110.424 29.3684 110.078 28.2406 110.078 26.767V22.3913C110.078 20.9177 110.424 19.7974 111.115 19.0306C111.807 18.2486 112.852 17.8577 114.251 17.8577C115.649 17.8577 116.694 18.2486 117.386 19.0306C118.093 19.7974 118.446 20.9177 118.446 22.3913V26.767C118.446 28.2406 118.093 29.3684 117.386 30.1503C116.694 30.9172 115.649 31.3007 114.251 31.3007ZM114.273 29.1805C114.739 29.1805 115.048 29 115.198 28.6391C115.348 28.2632 115.423 27.7144 115.423 26.9926V22.1883C115.423 21.4665 115.348 20.9177 115.198 20.5418C115.048 20.1658 114.739 19.9779 114.273 19.9779C113.792 19.9779 113.476 20.1658 113.326 20.5418C113.175 20.9177 113.1 21.4665 113.1 22.1883V26.9926C113.1 27.7144 113.175 28.2632 113.326 28.6391C113.476 29 113.792 29.1805 114.273 29.1805ZM124.335 31.2555C123.147 31.2555 122.305 30.9698 121.808 30.3984C121.327 29.827 121.087 28.9775 121.087 27.8497V20.0681H119.778V18.0607H121.087V14.1586H124.177V18.0607H126.139V20.0681H124.177V27.579C124.177 28.0151 124.267 28.3309 124.447 28.5263C124.643 28.7218 124.944 28.8196 125.35 28.8196C125.726 28.8196 126.041 28.7895 126.297 28.7293V31.0977C125.695 31.2029 125.041 31.2555 124.335 31.2555ZM128.26 12.8278H135.929V15.1736H131.576V20.429H135.004V22.7522H131.576V28.8196H135.974V31.0977H128.26V12.8278ZM137.705 18.0607H140.659V19.211C141.532 18.2938 142.554 17.8351 143.727 17.8351C144.253 17.8351 144.704 17.9705 145.08 18.2411C145.456 18.4968 145.734 18.8877 145.915 19.414C146.817 18.3614 147.915 17.8351 149.208 17.8351C149.93 17.8351 150.509 18.0983 150.945 18.6246C151.396 19.1509 151.621 19.9102 151.621 20.9027V31.0977H148.689V21.1959C148.689 20.7147 148.606 20.3764 148.441 20.1809C148.291 19.9854 148.058 19.8877 147.742 19.8877C147.501 19.8877 147.23 19.9553 146.93 20.0907C146.644 20.226 146.381 20.414 146.14 20.6545V20.9027V31.0977H143.231V21.1959C143.231 20.7147 143.148 20.3764 142.983 20.1809C142.817 19.9854 142.577 19.8877 142.261 19.8877C142.02 19.8877 141.757 19.9553 141.471 20.0907C141.186 20.226 140.915 20.414 140.659 20.6545V31.0977H137.705V18.0607ZM153.894 18.0607H156.962V19.0531C157.789 18.2562 158.676 17.8577 159.623 17.8577C160.676 17.8577 161.42 18.2938 161.856 19.1659C162.292 20.038 162.51 21.053 162.51 22.2109V26.6317C162.51 28.0301 162.262 29.1579 161.766 30.015C161.285 30.8721 160.518 31.3007 159.465 31.3007C158.623 31.3007 157.789 30.9097 156.962 30.1278V35.3832H153.894V18.0607ZM158.315 29.1579C158.751 29.1579 159.044 28.9474 159.195 28.5263C159.36 28.1053 159.443 27.5114 159.443 26.7445V22.053C159.443 21.3763 159.36 20.85 159.195 20.4741C159.029 20.0982 158.729 19.9102 158.293 19.9102C157.841 19.9102 157.398 20.0982 156.962 20.4741V28.7068C157.383 29.0075 157.834 29.1579 158.315 29.1579ZM164.824 12.8278H167.869V31.0977H164.824V12.8278ZM174.251 31.3007C172.853 31.3007 171.808 30.9172 171.116 30.1503C170.424 29.3684 170.079 28.2406 170.079 26.767V22.3913C170.079 20.9177 170.424 19.7974 171.116 19.0306C171.808 18.2486 172.853 17.8577 174.251 17.8577C175.65 17.8577 176.695 18.2486 177.386 19.0306C178.093 19.7974 178.447 20.9177 178.447 22.3913V26.767C178.447 28.2406 178.093 29.3684 177.386 30.1503C176.695 30.9172 175.65 31.3007 174.251 31.3007ZM174.274 29.1805C174.74 29.1805 175.048 29 175.199 28.6391C175.349 28.2632 175.424 27.7144 175.424 26.9926V22.1883C175.424 21.4665 175.349 20.9177 175.199 20.5418C175.048 20.1658 174.74 19.9779 174.274 19.9779C173.793 19.9779 173.477 20.1658 173.327 20.5418C173.176 20.9177 173.101 21.4665 173.101 22.1883V26.9926C173.101 27.7144 173.176 28.2632 173.327 28.6391C173.477 29 173.793 29.1805 174.274 29.1805ZM180.659 32.4284C181.471 32.4284 182.042 32.3532 182.373 32.2029C182.719 32.0675 182.892 31.7969 182.892 31.3909C182.892 31.1202 182.734 30.3533 182.418 29.0902L179.554 18.0607H182.531L184.223 26.6768L185.689 18.0607H188.643L185.598 31.6164C185.343 32.7141 184.854 33.4885 184.132 33.9396C183.426 34.4058 182.463 34.6388 181.245 34.6388H180.659V32.4284ZM194.009 31.3007C192.566 31.3007 191.506 30.9022 190.829 30.1052C190.152 29.2932 189.814 28.0978 189.814 26.5189V22.6394C189.814 21.0455 190.152 19.8501 190.829 19.0531C191.521 18.2562 192.581 17.8577 194.009 17.8577C195.483 17.8577 196.52 18.2712 197.122 19.0982C197.738 19.9253 198.047 21.1733 198.047 22.8424V24.7145H192.859V27.2858C192.859 27.9174 192.949 28.376 193.13 28.6617C193.325 28.9474 193.626 29.0902 194.032 29.0902C194.423 29.0902 194.701 28.9549 194.866 28.6842C195.047 28.3985 195.137 27.97 195.137 27.3986V26.2934H198.024V27.1956C198.024 28.5339 197.686 29.5564 197.009 30.2631C196.332 30.9548 195.332 31.3007 194.009 31.3007ZM195.137 23.2033V21.9628C195.137 21.2861 195.054 20.8049 194.889 20.5192C194.723 20.2185 194.43 20.0681 194.009 20.0681C193.573 20.0681 193.272 20.226 193.107 20.5418C192.942 20.8575 192.859 21.444 192.859 22.3011V23.2033H195.137ZM204.075 31.3007C202.632 31.3007 201.572 30.9022 200.895 30.1052C200.218 29.2932 199.88 28.0978 199.88 26.5189V22.6394C199.88 21.0455 200.218 19.8501 200.895 19.0531C201.587 18.2562 202.647 17.8577 204.075 17.8577C205.549 17.8577 206.587 18.2712 207.188 19.0982C207.805 19.9253 208.113 21.1733 208.113 22.8424V24.7145H202.925V27.2858C202.925 27.9174 203.015 28.376 203.196 28.6617C203.391 28.9474 203.692 29.0902 204.098 29.0902C204.489 29.0902 204.767 28.9549 204.933 28.6842C205.113 28.3985 205.203 27.97 205.203 27.3986V26.2934H208.09V27.1956C208.09 28.5339 207.752 29.5564 207.075 30.2631C206.399 30.9548 205.399 31.3007 204.075 31.3007ZM205.203 23.2033V21.9628C205.203 21.2861 205.12 20.8049 204.955 20.5192C204.79 20.2185 204.496 20.0681 204.075 20.0681C203.639 20.0681 203.339 20.226 203.173 20.5418C203.008 20.8575 202.925 21.444 202.925 22.3011V23.2033H205.203ZM213.736 31.3007C212.638 31.3007 211.736 31.0074 211.029 30.421C210.322 29.8346 209.819 28.9775 209.518 27.8497L211.796 26.97C212.142 28.4286 212.773 29.1579 213.69 29.1579C214.036 29.1579 214.299 29.0677 214.48 28.8872C214.675 28.7068 214.773 28.4587 214.773 28.1429C214.773 27.7971 214.668 27.4813 214.457 27.1956C214.247 26.8948 213.871 26.5189 213.33 26.0678L211.773 24.7145C211.112 24.1732 210.623 23.6469 210.307 23.1356C209.991 22.6244 209.834 22.0003 209.834 21.2635C209.834 20.241 210.179 19.4215 210.871 18.805C211.578 18.1735 212.465 17.8577 213.533 17.8577C214.555 17.8577 215.39 18.1659 216.036 18.7825C216.683 19.3839 217.104 20.2034 217.299 21.241L215.292 22.0981C215.172 21.4966 214.969 21.0079 214.683 20.632C214.412 20.241 214.059 20.0455 213.623 20.0455C213.307 20.0455 213.051 20.1433 212.856 20.3388C212.676 20.5342 212.585 20.7824 212.585 21.0831C212.585 21.3237 212.691 21.5793 212.901 21.85C213.112 22.1206 213.427 22.4364 213.848 22.7973L215.427 24.2408C216.104 24.8273 216.623 25.3912 216.984 25.9325C217.359 26.4588 217.547 27.0978 217.547 27.8497C217.547 28.9474 217.187 29.797 216.465 30.3984C215.758 30.9999 214.848 31.3007 213.736 31.3007Z" fill="black"/>
<path d="M74.0443 47.8047H73.3764V38.947H70.2963V38.3245H77.1243V38.947H74.0443V47.8047ZM83.291 47.8047V43.2332C83.291 42.5243 83.1418 42.0098 82.8435 41.6899C82.5453 41.3657 82.0827 41.2036 81.4559 41.2036C80.6129 41.2036 79.9947 41.4176 79.6014 41.8456C79.2123 42.2692 79.0178 42.9587 79.0178 43.9141V47.8047H78.3758V37.715H79.0178V40.9248L78.9853 41.8261H79.0307C79.2944 41.4025 79.6273 41.0955 80.0293 40.9053C80.4314 40.7151 80.9306 40.62 81.5272 40.62C83.1267 40.62 83.9264 41.4781 83.9264 43.1943V47.8047H83.291ZM89.0556 47.9344C88.031 47.9344 87.2313 47.6188 86.6563 46.9877C86.0857 46.3565 85.8004 45.4725 85.8004 44.3356C85.8004 43.2116 86.0771 42.3124 86.6304 41.6381C87.1837 40.9594 87.9294 40.62 88.8675 40.62C89.6975 40.62 90.3524 40.9096 90.8323 41.4889C91.3121 42.0682 91.552 42.855 91.552 43.8492V44.368H86.4748C86.4834 45.3363 86.7082 46.0755 87.1492 46.5856C87.5944 47.0957 88.2299 47.3508 89.0556 47.3508C89.4576 47.3508 89.8099 47.3227 90.1125 47.2665C90.4194 47.2103 90.8063 47.0892 91.2732 46.9034V47.487C90.8755 47.6599 90.5081 47.7766 90.1709 47.8371C89.8337 47.902 89.4619 47.9344 89.0556 47.9344ZM88.8675 41.1906C88.1888 41.1906 87.6441 41.4154 87.2334 41.865C86.8228 42.3103 86.5829 42.9544 86.5137 43.7974H90.8712C90.8712 42.9803 90.6939 42.3427 90.3395 41.8845C89.985 41.4219 89.4943 41.1906 88.8675 41.1906ZM102.776 44.2707C102.776 45.4206 102.498 46.3198 101.94 46.9682C101.382 47.6123 100.613 47.9344 99.6316 47.9344C99.0134 47.9344 98.4687 47.7852 97.9975 47.487C97.5263 47.1887 97.1653 46.7607 96.9146 46.203C96.6639 45.6454 96.5385 45.0013 96.5385 44.2707C96.5385 43.1208 96.8173 42.226 97.375 41.5862C97.9327 40.9421 98.6978 40.62 99.6705 40.62C100.639 40.62 101.397 40.9464 101.946 41.5992C102.5 42.2476 102.776 43.1381 102.776 44.2707ZM97.2129 44.2707C97.2129 45.239 97.4247 45.9955 97.8484 46.5402C98.2763 47.0806 98.8794 47.3508 99.6575 47.3508C100.436 47.3508 101.036 47.0806 101.46 46.5402C101.888 45.9955 102.102 45.239 102.102 44.2707C102.102 43.2981 101.886 42.5437 101.454 42.0077C101.026 41.4716 100.423 41.2036 99.6445 41.2036C98.8664 41.2036 98.2655 41.4716 97.8419 42.0077C97.4225 42.5394 97.2129 43.2937 97.2129 44.2707ZM105.286 40.7562V45.3212C105.286 46.0301 105.435 46.5467 105.733 46.8709C106.032 47.1908 106.494 47.3508 107.121 47.3508C107.96 47.3508 108.576 47.139 108.969 46.7153C109.367 46.2917 109.566 45.6022 109.566 44.6468V40.7562H110.201V47.8047H109.656L109.54 46.832H109.501C109.043 47.5669 108.228 47.9344 107.056 47.9344C105.452 47.9344 104.65 47.0763 104.65 45.3601V40.7562H105.286ZM114.422 47.3638C114.829 47.3638 115.183 47.3292 115.486 47.26V47.7788C115.175 47.8825 114.816 47.9344 114.409 47.9344C113.787 47.9344 113.327 47.7679 113.028 47.4351C112.734 47.1022 112.587 46.5791 112.587 45.8659V41.3138H111.543V40.9377L112.587 40.6459L112.912 39.0508H113.242V40.7562H115.311V41.3138H113.242V45.7751C113.242 46.3154 113.337 46.7153 113.528 46.9747C113.718 47.2341 114.016 47.3638 114.422 47.3638ZM121.38 45.9696C121.38 46.6008 121.14 47.0871 120.66 47.4286C120.181 47.7658 119.5 47.9344 118.618 47.9344C117.675 47.9344 116.928 47.7896 116.374 47.4999V46.8061C117.083 47.1606 117.831 47.3378 118.618 47.3378C119.314 47.3378 119.841 47.2233 120.2 46.9941C120.563 46.7607 120.745 46.4516 120.745 46.0669C120.745 45.7124 120.6 45.4141 120.31 45.172C120.025 44.93 119.554 44.6922 118.897 44.4588C118.192 44.2037 117.697 43.9854 117.412 43.8038C117.126 43.6179 116.91 43.4105 116.763 43.1813C116.621 42.9479 116.549 42.6647 116.549 42.3319C116.549 41.8045 116.77 41.3873 117.211 41.0804C117.656 40.7735 118.276 40.62 119.072 40.62C119.833 40.62 120.554 40.7627 121.237 41.048L120.998 41.6316C120.306 41.3463 119.664 41.2036 119.072 41.2036C118.497 41.2036 118.041 41.2987 117.703 41.4889C117.366 41.6791 117.198 41.9428 117.198 42.28C117.198 42.6475 117.327 42.9414 117.587 43.1619C117.85 43.3824 118.363 43.6288 119.124 43.9011C119.759 44.1302 120.222 44.3377 120.511 44.5236C120.801 44.7052 121.017 44.9127 121.16 45.1461C121.307 45.3795 121.38 45.654 121.38 45.9696ZM125.057 47.3638C125.463 47.3638 125.818 47.3292 126.12 47.26V47.7788C125.809 47.8825 125.45 47.9344 125.044 47.9344C124.421 47.9344 123.961 47.7679 123.663 47.4351C123.369 47.1022 123.222 46.5791 123.222 45.8659V41.3138H122.178V40.9377L123.222 40.6459L123.546 39.0508H123.877V40.7562H125.945V41.3138H123.877V45.7751C123.877 46.3154 123.972 46.7153 124.162 46.9747C124.352 47.2341 124.65 47.3638 125.057 47.3638ZM131.924 47.8047L131.762 46.6894H131.71C131.355 47.1433 130.99 47.4653 130.614 47.6555C130.242 47.8414 129.801 47.9344 129.291 47.9344C128.599 47.9344 128.061 47.7571 127.676 47.4027C127.292 47.0482 127.099 46.5575 127.099 45.9307C127.099 45.2434 127.385 44.7095 127.955 44.3291C128.53 43.9487 129.36 43.7476 130.445 43.726L131.788 43.6871V43.2202C131.788 42.5502 131.651 42.0444 131.379 41.7029C131.107 41.3614 130.668 41.1906 130.063 41.1906C129.41 41.1906 128.733 41.3722 128.033 41.7353L127.793 41.1777C128.567 40.8145 129.332 40.633 130.089 40.633C130.862 40.633 131.44 40.834 131.82 41.236C132.205 41.6381 132.397 42.2649 132.397 43.1165V47.8047H131.924ZM129.33 47.3508C130.082 47.3508 130.674 47.1368 131.107 46.7088C131.543 46.2765 131.762 45.6778 131.762 44.9127V44.2188L130.53 44.2707C129.54 44.3183 128.833 44.4739 128.409 44.7376C127.99 44.997 127.78 45.4033 127.78 45.9566C127.78 46.3976 127.914 46.7413 128.182 46.9877C128.455 47.2297 128.837 47.3508 129.33 47.3508ZM137.306 41.3138H135.646V47.8047H135.004V41.3138H133.694V40.9377L135.004 40.6978V40.1531C135.004 39.2886 135.162 38.6552 135.477 38.2532C135.797 37.8469 136.318 37.6437 137.04 37.6437C137.429 37.6437 137.818 37.702 138.207 37.8188L138.058 38.3764C137.712 38.2683 137.368 38.2143 137.027 38.2143C136.525 38.2143 136.169 38.3635 135.957 38.6617C135.749 38.9557 135.646 39.4355 135.646 40.1013V40.7562H137.306V41.3138ZM141.287 41.3138H139.627V47.8047H138.985V41.3138H137.675V40.9377L138.985 40.6978V40.1531C138.985 39.2886 139.143 38.6552 139.459 38.2532C139.778 37.8469 140.299 37.6437 141.021 37.6437C141.41 37.6437 141.799 37.702 142.188 37.8188L142.039 38.3764C141.693 38.2683 141.35 38.2143 141.008 38.2143C140.507 38.2143 140.15 38.3635 139.938 38.6617C139.731 38.9557 139.627 39.4355 139.627 40.1013V40.7562H141.287V41.3138ZM143.297 47.8047H142.655V40.7562H143.297V47.8047ZM142.565 38.7979C142.565 38.3829 142.701 38.1754 142.973 38.1754C143.107 38.1754 143.211 38.2294 143.284 38.3375C143.362 38.4456 143.401 38.5991 143.401 38.7979C143.401 38.9924 143.362 39.1459 143.284 39.2583C143.211 39.3707 143.107 39.4269 142.973 39.4269C142.701 39.4269 142.565 39.2172 142.565 38.7979ZM150.573 47.8047V43.2332C150.573 42.5243 150.424 42.0098 150.125 41.6899C149.827 41.3657 149.364 41.2036 148.738 41.2036C147.895 41.2036 147.277 41.4176 146.883 41.8456C146.494 42.2692 146.3 42.9587 146.3 43.9141V47.8047H145.658V40.7562H146.202L146.325 41.7224H146.364C146.823 40.9875 147.637 40.62 148.809 40.62C150.408 40.62 151.208 41.4781 151.208 43.1943V47.8047H150.573ZM158.989 40.7562V41.2036L157.53 41.2944C157.919 41.7786 158.114 42.3103 158.114 42.8895C158.114 43.5682 157.887 44.1194 157.433 44.5431C156.984 44.9624 156.378 45.172 155.618 45.172C155.298 45.172 155.073 45.1591 154.943 45.1331C154.688 45.2671 154.494 45.4249 154.36 45.6065C154.226 45.7881 154.159 45.9804 154.159 46.1836C154.159 46.4084 154.243 46.5727 154.411 46.6764C154.584 46.7802 154.872 46.832 155.274 46.832H156.506C157.271 46.832 157.857 46.9877 158.263 47.2989C158.67 47.6058 158.873 48.0619 158.873 48.6671C158.873 49.4106 158.57 49.9834 157.965 50.3855C157.364 50.7918 156.506 50.995 155.391 50.995C154.504 50.995 153.817 50.8242 153.329 50.4827C152.844 50.1412 152.602 49.6657 152.602 49.0562C152.602 48.572 152.751 48.17 153.05 47.8501C153.352 47.5302 153.761 47.3119 154.275 47.1952C154.063 47.1044 153.893 46.9769 153.763 46.8126C153.638 46.644 153.575 46.4516 153.575 46.2355C153.575 45.7643 153.875 45.3493 154.476 44.9905C154.066 44.8219 153.746 44.5582 153.517 44.1994C153.288 43.8363 153.173 43.4213 153.173 42.9544C153.173 42.2497 153.396 41.6856 153.841 41.262C154.29 40.834 154.896 40.62 155.656 40.62C156.119 40.62 156.478 40.6654 156.733 40.7562H158.989ZM153.283 48.9978C153.283 49.9661 154.003 50.4503 155.442 50.4503C157.293 50.4503 158.218 49.8602 158.218 48.6801C158.218 48.2564 158.073 47.9495 157.783 47.7593C157.494 47.5691 157.025 47.474 156.376 47.474H155.222C153.929 47.474 153.283 47.9819 153.283 48.9978ZM153.821 42.9544C153.821 43.4991 153.986 43.9227 154.314 44.2253C154.647 44.5236 155.09 44.6727 155.643 44.6727C156.231 44.6727 156.681 44.5236 156.992 44.2253C157.308 43.927 157.466 43.4947 157.466 42.9284C157.466 42.3276 157.303 41.878 156.979 41.5797C156.659 41.2771 156.21 41.1258 155.631 41.1258C155.069 41.1258 154.625 41.2879 154.301 41.6121C153.981 41.932 153.821 42.3794 153.821 42.9544ZM166.706 47.9344C165.699 47.9344 164.91 47.6166 164.339 46.9812C163.768 46.3457 163.483 45.4595 163.483 44.3226C163.483 43.1554 163.779 42.2476 164.371 41.5992C164.964 40.9464 165.774 40.62 166.803 40.62C167.413 40.62 167.996 40.7259 168.554 40.9377L168.379 41.5084C167.769 41.3052 167.24 41.2036 166.79 41.2036C165.926 41.2036 165.271 41.4716 164.825 42.0077C164.38 42.5394 164.157 43.3067 164.157 44.3096C164.157 45.2607 164.38 46.0064 164.825 46.5467C165.271 47.0828 165.893 47.3508 166.693 47.3508C167.333 47.3508 167.927 47.2362 168.476 47.0071V47.6037C168.026 47.8241 167.436 47.9344 166.706 47.9344ZM176.037 44.2707C176.037 45.4206 175.758 46.3198 175.2 46.9682C174.643 47.6123 173.873 47.9344 172.892 47.9344C172.274 47.9344 171.729 47.7852 171.258 47.487C170.787 47.1887 170.426 46.7607 170.175 46.203C169.924 45.6454 169.799 45.0013 169.799 44.2707C169.799 43.1208 170.078 42.226 170.635 41.5862C171.193 40.9421 171.958 40.62 172.931 40.62C173.899 40.62 174.658 40.9464 175.207 41.5992C175.76 42.2476 176.037 43.1381 176.037 44.2707ZM170.473 44.2707C170.473 45.239 170.685 45.9955 171.109 46.5402C171.537 47.0806 172.14 47.3508 172.918 47.3508C173.696 47.3508 174.297 47.0806 174.72 46.5402C175.148 45.9955 175.362 45.239 175.362 44.2707C175.362 43.2981 175.146 42.5437 174.714 42.0077C174.286 41.4716 173.683 41.2036 172.905 41.2036C172.127 41.2036 171.526 41.4716 171.102 42.0077C170.683 42.5394 170.473 43.2937 170.473 44.2707ZM186.794 47.8047V43.1813C186.794 42.494 186.66 41.9925 186.392 41.677C186.124 41.3614 185.714 41.2036 185.16 41.2036C184.438 41.2036 183.905 41.4025 183.559 41.8002C183.213 42.1979 183.04 42.8225 183.04 43.6741V47.8047H182.385V42.9868C182.385 41.798 181.84 41.2036 180.751 41.2036C180.012 41.2036 179.474 41.4198 179.136 41.852C178.799 42.28 178.631 42.9674 178.631 43.9141V47.8047H177.989V40.7562H178.52L178.657 41.7224H178.695C178.89 41.3722 179.167 41.102 179.525 40.9118C179.884 40.7173 180.28 40.62 180.712 40.62C181.823 40.62 182.536 41.0372 182.852 41.8715H182.878C183.107 41.4695 183.414 41.1604 183.799 40.9442C184.188 40.7281 184.629 40.62 185.121 40.62C185.891 40.62 186.468 40.8254 186.853 41.236C187.237 41.6467 187.43 42.2995 187.43 43.1943V47.8047H186.794ZM192.728 47.9344C191.643 47.9344 190.851 47.528 190.354 46.7153H190.309L190.328 47.26C190.346 47.5799 190.354 47.9301 190.354 48.3105V50.995H189.712V40.7562H190.257L190.38 41.7613H190.419C190.903 41.0004 191.677 40.62 192.741 40.62C193.692 40.62 194.416 40.9334 194.913 41.5602C195.414 42.1827 195.665 43.0906 195.665 44.2837C195.665 45.4422 195.401 46.3414 194.874 46.9812C194.351 47.6166 193.635 47.9344 192.728 47.9344ZM192.715 47.3638C193.437 47.3638 193.994 47.0957 194.388 46.5597C194.785 46.0236 194.984 45.2736 194.984 44.3096C194.984 42.2389 194.236 41.2036 192.741 41.2036C191.919 41.2036 191.316 41.4306 190.931 41.8845C190.547 42.334 190.354 43.0689 190.354 44.0891V44.2966C190.354 45.399 190.538 46.1858 190.905 46.657C191.277 47.1282 191.88 47.3638 192.715 47.3638ZM201.903 47.8047L201.741 46.6894H201.689C201.334 47.1433 200.969 47.4653 200.593 47.6555C200.221 47.8414 199.78 47.9344 199.27 47.9344C198.579 47.9344 198.04 47.7571 197.656 47.4027C197.271 47.0482 197.079 46.5575 197.079 45.9307C197.079 45.2434 197.364 44.7095 197.935 44.3291C198.509 43.9487 199.339 43.7476 200.425 43.726L201.767 43.6871V43.2202C201.767 42.5502 201.631 42.0444 201.358 41.7029C201.086 41.3614 200.647 41.1906 200.042 41.1906C199.389 41.1906 198.713 41.3722 198.012 41.7353L197.772 41.1777C198.546 40.8145 199.311 40.633 200.068 40.633C200.842 40.633 201.419 40.834 201.799 41.236C202.184 41.6381 202.376 42.2649 202.376 43.1165V47.8047H201.903ZM199.309 47.3508C200.061 47.3508 200.654 47.1368 201.086 46.7088C201.523 46.2765 201.741 45.6778 201.741 44.9127V44.2188L200.509 44.2707C199.519 44.3183 198.812 44.4739 198.388 44.7376C197.969 44.997 197.759 45.4033 197.759 45.9566C197.759 46.3976 197.893 46.7413 198.161 46.9877C198.434 47.2297 198.816 47.3508 199.309 47.3508ZM209.58 47.8047V43.2332C209.58 42.5243 209.431 42.0098 209.133 41.6899C208.835 41.3657 208.372 41.2036 207.745 41.2036C206.902 41.2036 206.284 41.4176 205.891 41.8456C205.502 42.2692 205.307 42.9587 205.307 43.9141V47.8047H204.665V40.7562H205.21L205.333 41.7224H205.372C205.83 40.9875 206.645 40.62 207.817 40.62C209.416 40.62 210.216 41.4781 210.216 43.1943V47.8047H209.58ZM211.318 40.7562H211.98L213.471 44.7116C213.925 45.9264 214.212 46.7456 214.333 47.1692H214.372C214.554 46.6116 214.85 45.7794 215.261 44.6727L216.752 40.7562H217.414L214.256 48.9459C214.001 49.6117 213.787 50.0612 213.614 50.2947C213.441 50.5281 213.238 50.7032 213.004 50.8199C212.775 50.9366 212.496 50.995 212.168 50.995C211.921 50.995 211.647 50.9496 211.344 50.8588V50.3012C211.595 50.3703 211.865 50.4049 212.155 50.4049C212.375 50.4049 212.57 50.353 212.738 50.2493C212.907 50.1455 213.058 49.9834 213.192 49.763C213.331 49.5468 213.488 49.201 213.666 48.7255C213.847 48.2543 213.964 47.9473 214.016 47.8047L211.318 40.7562Z" fill="black"/>
<g opacity="0.3">
<path opacity="0.3" d="M4.70117 1.15234L19.9618 9.96537H58.7447V1.15234H4.70117Z" fill="white"/>
<path opacity="0.3" d="M23.4968 22.8584C17.296 25.8814 11.7299 30.0006 7.04996 34.9644V13.3623L23.4968 22.8584ZM0.0115391 59.8966V59.8989H0.00923092C2.78075 50.2782 8.35149 41.8436 15.7799 35.5321L29.8475 59.8989H37.9867L21.4845 31.3368C27.0275 27.8314 33.3044 25.3807 40.0313 24.266L0 1.15234V59.8966" fill="white"/>
<path opacity="0.3" d="M47.6323 25.9421L58.7438 25.9375V34.7482H26.1779L24.6802 32.1567C31.4717 28.3029 39.2947 26.0575 47.6323 25.9421Z" fill="white"/>
<path opacity="0.3" d="M35.6279 51.0859L40.7187 59.899H58.7486V51.0859H35.6279Z" fill="white"/>
</g>
<path d="M5.85449 0L21.1152 8.81302H59.898V0H5.85449Z" fill="#F78F01"/>
<path d="M24.6506 21.706C18.4499 24.7291 12.8837 28.8483 8.20377 33.8121V12.2099L24.6506 21.706ZM1.16535 58.7443V58.7466H1.16304C3.93456 49.1258 9.5053 40.6913 16.9337 34.3798L31.0013 58.7466H39.1405L22.6383 30.1844C28.1813 26.6791 34.4582 24.2283 41.1851 23.1137L1.15381 0V58.7443" fill="#FBBF13"/>
<path d="M48.7866 24.7859L59.8981 24.7812V33.592H27.3322L25.8345 31.0004C32.626 27.1466 40.449 24.9013 48.7866 24.7859Z" fill="#F78F01"/>
<path d="M36.7822 49.9297L41.873 58.7427H59.9028V49.9297H36.7822Z" fill="#F78F01"/>
</svg>
