<svg width="171" height="45" viewBox="0 0 171 45" fill="none" xmlns="http://www.w3.org/2000/svg">
<path d="M52.6 23.0117V9.59158H55.8142C56.7199 9.59158 57.4821 9.70204 58.1006 9.92294C58.7302 10.1328 59.2051 10.4973 59.5255 11.0164C59.8568 11.5356 60.0225 12.2425 60.0225 13.1371C60.0225 13.6784 59.9728 14.1644 59.8734 14.5951C59.774 15.0259 59.6028 15.3959 59.3598 15.7052C59.1278 16.0034 58.802 16.2354 58.3823 16.4011L60.2545 23.0117H57.8024L56.1787 16.865H55.0521V23.0117H52.6ZM55.0521 15.3241H55.8142C56.2892 15.3241 56.6647 15.2579 56.9408 15.1253C57.228 14.9817 57.4324 14.7608 57.5539 14.4626C57.6754 14.1533 57.7361 13.7612 57.7361 13.2863C57.7361 12.6125 57.6091 12.1099 57.355 11.7786C57.112 11.4362 56.6426 11.265 55.9468 11.265H55.0521V15.3241ZM64.6375 23.1608C63.9195 23.1608 63.3341 23.0283 62.8813 22.7632C62.4284 22.4871 62.0915 22.0894 61.8706 21.5703C61.6608 21.0401 61.5558 20.405 61.5558 19.665V16.7821C61.5558 16.02 61.6608 15.3794 61.8706 14.8602C62.0915 14.3411 62.4284 13.949 62.8813 13.6839C63.3452 13.4188 63.9306 13.2863 64.6375 13.2863C65.3996 13.2863 65.9905 13.4299 66.4103 13.717C66.841 14.0042 67.1448 14.4239 67.3215 14.9762C67.5093 15.5174 67.6032 16.1802 67.6032 16.9644V18.323H63.7925V20.2117C63.7925 20.521 63.8201 20.775 63.8754 20.9738C63.9416 21.1727 64.041 21.3163 64.1736 21.4046C64.3061 21.493 64.4663 21.5372 64.6541 21.5372C64.8529 21.5372 65.013 21.493 65.1345 21.4046C65.256 21.3052 65.3444 21.1671 65.3996 20.9904C65.4548 20.8026 65.4825 20.5707 65.4825 20.2946V19.4993H67.5866V20.1454C67.5866 21.1174 67.3436 21.863 66.8576 22.3821C66.3716 22.9013 65.6316 23.1608 64.6375 23.1608ZM63.7925 17.2129H65.4825V16.3017C65.4825 15.9703 65.4548 15.7052 65.3996 15.5064C65.3444 15.2965 65.256 15.1474 65.1345 15.059C65.013 14.9596 64.8418 14.9099 64.6209 14.9099C64.4221 14.9099 64.2619 14.9596 64.1404 15.059C64.0189 15.1585 63.9306 15.3241 63.8754 15.5561C63.8201 15.788 63.7925 16.1194 63.7925 16.5502V17.2129ZM69.1322 23.0117V13.4354H71.3026V14.2638C71.634 13.9103 71.993 13.6563 72.3796 13.5016C72.7662 13.336 73.1583 13.2531 73.5559 13.2531C73.9314 13.2531 74.2573 13.347 74.5334 13.5348C74.8206 13.7226 75.0305 14.0208 75.163 14.4295C75.5275 14.0097 75.9141 13.7115 76.3228 13.5348C76.7314 13.347 77.1512 13.2531 77.5819 13.2531C77.9243 13.2531 78.2281 13.3415 78.4932 13.5182C78.7583 13.6839 78.9681 13.9379 79.1228 14.2803C79.2774 14.6117 79.3547 15.0314 79.3547 15.5395V23.0117H77.2009V15.7383C77.2009 15.3738 77.1401 15.1253 77.0186 14.9928C76.8971 14.8492 76.7259 14.7774 76.505 14.7774C76.3283 14.7774 76.1295 14.8271 75.9086 14.9265C75.6987 15.0259 75.5054 15.164 75.3287 15.3407C75.3287 15.3738 75.3287 15.407 75.3287 15.4401C75.3287 15.4622 75.3287 15.4953 75.3287 15.5395V23.0117H73.1914V15.7383C73.1914 15.3738 73.1251 15.1253 72.9926 14.9928C72.8711 14.8492 72.6999 14.7774 72.479 14.7774C72.3022 14.7774 72.109 14.8271 71.8991 14.9265C71.6892 15.0259 71.4904 15.164 71.3026 15.3407V23.0117H69.1322ZM83.9238 23.1608C83.2279 23.1608 82.6535 23.0338 82.2007 22.7798C81.7478 22.5147 81.4054 22.1336 81.1735 21.6366C80.9525 21.1395 80.8421 20.5376 80.8421 19.8306V16.6164C80.8421 15.9095 80.9525 15.3076 81.1735 14.8105C81.4054 14.3135 81.7478 13.9379 82.2007 13.6839C82.6535 13.4188 83.2279 13.2863 83.9238 13.2863C84.6196 13.2863 85.194 13.4188 85.6468 13.6839C86.1107 13.9379 86.4531 14.3135 86.6741 14.8105C86.906 15.3076 87.022 15.9095 87.022 16.6164V19.8306C87.022 20.5376 86.906 21.1395 86.6741 21.6366C86.4531 22.1336 86.1107 22.5147 85.6468 22.7798C85.194 23.0338 84.6196 23.1608 83.9238 23.1608ZM83.9403 21.6034C84.1944 21.6034 84.3821 21.5316 84.5036 21.388C84.6251 21.2445 84.7025 21.0512 84.7356 20.8082C84.7687 20.5541 84.7853 20.278 84.7853 19.9798V16.4673C84.7853 16.1691 84.7687 15.8985 84.7356 15.6555C84.7025 15.4125 84.6251 15.2192 84.5036 15.0756C84.3821 14.921 84.1944 14.8437 83.9403 14.8437C83.6863 14.8437 83.4985 14.921 83.377 15.0756C83.2555 15.2192 83.1727 15.4125 83.1285 15.6555C83.0954 15.8985 83.0788 16.1691 83.0788 16.4673V19.9798C83.0788 20.278 83.0954 20.5541 83.1285 20.8082C83.1727 21.0512 83.2555 21.2445 83.377 21.388C83.4985 21.5316 83.6863 21.6034 83.9403 21.6034ZM91.331 23.1277C90.7235 23.1277 90.243 23.0283 89.8896 22.8295C89.5471 22.6307 89.3041 22.3435 89.1606 21.9679C89.017 21.5924 88.9452 21.145 88.9452 20.6259V14.9265H87.9842V13.4354H88.9452V10.5691H91.215V13.4354H92.673V14.9265H91.215V20.4271C91.215 20.7585 91.2868 20.9959 91.4304 21.1395C91.574 21.2721 91.7894 21.3383 92.0765 21.3383C92.198 21.3383 92.314 21.3328 92.4245 21.3218C92.546 21.3107 92.6619 21.2997 92.7724 21.2886V23.0117C92.5846 23.0338 92.3637 23.0559 92.1097 23.078C91.8667 23.1111 91.6071 23.1277 91.331 23.1277ZM94.2143 23.0117V9.59158H99.8475V11.3147H96.6664V15.175H99.1682V16.8815H96.6664V21.3218H99.8806V23.0117H94.2143ZM101.152 23.0117V13.4354H103.322V14.2638C103.654 13.9103 104.013 13.6563 104.399 13.5016C104.786 13.336 105.178 13.2531 105.576 13.2531C105.951 13.2531 106.277 13.347 106.553 13.5348C106.84 13.7226 107.05 14.0208 107.183 14.4295C107.547 14.0097 107.934 13.7115 108.343 13.5348C108.751 13.347 109.171 13.2531 109.602 13.2531C109.944 13.2531 110.248 13.3415 110.513 13.5182C110.778 13.6839 110.988 13.9379 111.143 14.2803C111.297 14.6117 111.374 15.0314 111.374 15.5395V23.0117H109.221V15.7383C109.221 15.3738 109.16 15.1253 109.038 14.9928C108.917 14.8492 108.746 14.7774 108.525 14.7774C108.348 14.7774 108.149 14.8271 107.928 14.9265C107.718 15.0259 107.525 15.164 107.348 15.3407C107.348 15.3738 107.348 15.407 107.348 15.4401C107.348 15.4622 107.348 15.4953 107.348 15.5395V23.0117H105.211V15.7383C105.211 15.3738 105.145 15.1253 105.012 14.9928C104.891 14.8492 104.72 14.7774 104.499 14.7774C104.322 14.7774 104.129 14.8271 103.919 14.9265C103.709 15.0259 103.51 15.164 103.322 15.3407V23.0117H101.152ZM113.044 26.1597V13.4354H115.297V14.1644C115.573 13.8993 115.877 13.6894 116.209 13.5348C116.54 13.3691 116.888 13.2863 117.252 13.2863C117.683 13.2863 118.037 13.3857 118.313 13.5845C118.589 13.7833 118.804 14.0484 118.959 14.3798C119.114 14.7001 119.218 15.048 119.274 15.4235C119.34 15.788 119.373 16.1415 119.373 16.4839V19.7312C119.373 20.3608 119.296 20.9352 119.141 21.4543C118.998 21.9735 118.76 22.3877 118.429 22.6969C118.108 23.0062 117.678 23.1608 117.136 23.1608C116.794 23.1608 116.468 23.078 116.159 22.9123C115.861 22.7466 115.573 22.5368 115.297 22.2827V26.1597H113.044ZM116.291 21.5869C116.534 21.5869 116.711 21.5095 116.822 21.3549C116.943 21.1892 117.02 20.9738 117.054 20.7088C117.098 20.4326 117.12 20.1344 117.12 19.8141V16.3845C117.12 16.0863 117.098 15.8212 117.054 15.5892C117.009 15.3462 116.927 15.1529 116.805 15.0093C116.684 14.8658 116.507 14.794 116.275 14.794C116.098 14.794 115.921 14.8381 115.745 14.9265C115.579 15.0038 115.43 15.0977 115.297 15.2082V21.2555C115.441 21.3549 115.596 21.4378 115.761 21.504C115.927 21.5593 116.104 21.5869 116.291 21.5869ZM121.073 23.0117V9.59158H123.309V23.0117H121.073ZM127.997 23.1608C127.302 23.1608 126.727 23.0338 126.274 22.7798C125.821 22.5147 125.479 22.1336 125.247 21.6366C125.026 21.1395 124.916 20.5376 124.916 19.8306V16.6164C124.916 15.9095 125.026 15.3076 125.247 14.8105C125.479 14.3135 125.821 13.9379 126.274 13.6839C126.727 13.4188 127.302 13.2863 127.997 13.2863C128.693 13.2863 129.268 13.4188 129.72 13.6839C130.184 13.9379 130.527 14.3135 130.748 14.8105C130.98 15.3076 131.096 15.9095 131.096 16.6164V19.8306C131.096 20.5376 130.98 21.1395 130.748 21.6366C130.527 22.1336 130.184 22.5147 129.72 22.7798C129.268 23.0338 128.693 23.1608 127.997 23.1608ZM128.014 21.6034C128.268 21.6034 128.456 21.5316 128.577 21.388C128.699 21.2445 128.776 21.0512 128.809 20.8082C128.842 20.5541 128.859 20.278 128.859 19.9798V16.4673C128.859 16.1691 128.842 15.8985 128.809 15.6555C128.776 15.4125 128.699 15.2192 128.577 15.0756C128.456 14.921 128.268 14.8437 128.014 14.8437C127.76 14.8437 127.572 14.921 127.451 15.0756C127.329 15.2192 127.246 15.4125 127.202 15.6555C127.169 15.8985 127.152 16.1691 127.152 16.4673V19.9798C127.152 20.278 127.169 20.5541 127.202 20.8082C127.246 21.0512 127.329 21.2445 127.451 21.388C127.572 21.5316 127.76 21.6034 128.014 21.6034ZM132.704 25.6129V23.9892C133.091 23.9892 133.405 23.9671 133.648 23.923C133.891 23.8788 134.068 23.8015 134.179 23.691C134.289 23.5806 134.344 23.4259 134.344 23.2271C134.344 23.0835 134.306 22.8571 134.228 22.5478C134.162 22.2385 134.085 21.9017 133.996 21.5372L131.892 13.4354H134.079L135.322 19.7478L136.399 13.4354H138.569L136.332 23.3928C136.211 23.9561 136.007 24.3979 135.719 24.7182C135.432 25.0385 135.073 25.265 134.642 25.3975C134.212 25.5411 133.709 25.6129 133.135 25.6129H132.704ZM142.511 23.1608C141.793 23.1608 141.207 23.0283 140.754 22.7632C140.302 22.4871 139.965 22.0894 139.744 21.5703C139.534 21.0401 139.429 20.405 139.429 19.665V16.7821C139.429 16.02 139.534 15.3794 139.744 14.8602C139.965 14.3411 140.302 13.949 140.754 13.6839C141.218 13.4188 141.804 13.2863 142.511 13.2863C143.273 13.2863 143.864 13.4299 144.283 13.717C144.714 14.0042 145.018 14.4239 145.195 14.9762C145.382 15.5174 145.476 16.1802 145.476 16.9644V18.323H141.666V20.2117C141.666 20.521 141.693 20.775 141.749 20.9738C141.815 21.1727 141.914 21.3163 142.047 21.4046C142.179 21.493 142.339 21.5372 142.527 21.5372C142.726 21.5372 142.886 21.493 143.008 21.4046C143.129 21.3052 143.218 21.1671 143.273 20.9904C143.328 20.8026 143.356 20.5707 143.356 20.2946V19.4993H145.46V20.1454C145.46 21.1174 145.217 21.863 144.731 22.3821C144.245 22.9013 143.505 23.1608 142.511 23.1608ZM141.666 17.2129H143.356V16.3017C143.356 15.9703 143.328 15.7052 143.273 15.5064C143.218 15.2965 143.129 15.1474 143.008 15.059C142.886 14.9596 142.715 14.9099 142.494 14.9099C142.295 14.9099 142.135 14.9596 142.014 15.059C141.892 15.1585 141.804 15.3241 141.749 15.5561C141.693 15.788 141.666 16.1194 141.666 16.5502V17.2129ZM149.905 23.1608C149.187 23.1608 148.601 23.0283 148.149 22.7632C147.696 22.4871 147.359 22.0894 147.138 21.5703C146.928 21.0401 146.823 20.405 146.823 19.665V16.7821C146.823 16.02 146.928 15.3794 147.138 14.8602C147.359 14.3411 147.696 13.949 148.149 13.6839C148.612 13.4188 149.198 13.2863 149.905 13.2863C150.667 13.2863 151.258 13.4299 151.678 13.717C152.108 14.0042 152.412 14.4239 152.589 14.9762C152.777 15.5174 152.87 16.1802 152.87 16.9644V18.323H149.06V20.2117C149.06 20.521 149.087 20.775 149.143 20.9738C149.209 21.1727 149.308 21.3163 149.441 21.4046C149.573 21.493 149.734 21.5372 149.921 21.5372C150.12 21.5372 150.28 21.493 150.402 21.4046C150.523 21.3052 150.612 21.1671 150.667 20.9904C150.722 20.8026 150.75 20.5707 150.75 20.2946V19.4993H152.854V20.1454C152.854 21.1174 152.611 21.863 152.125 22.3821C151.639 22.9013 150.899 23.1608 149.905 23.1608ZM149.06 17.2129H150.75V16.3017C150.75 15.9703 150.722 15.7052 150.667 15.5064C150.612 15.2965 150.523 15.1474 150.402 15.059C150.28 14.9596 150.109 14.9099 149.888 14.9099C149.689 14.9099 149.529 14.9596 149.408 15.059C149.286 15.1585 149.198 15.3241 149.143 15.5561C149.087 15.788 149.06 16.1194 149.06 16.5502V17.2129ZM157.001 23.1608C156.194 23.1608 155.532 22.9454 155.013 22.5147C154.493 22.0839 154.123 21.4543 153.902 20.6259L155.576 19.9798C155.708 20.4989 155.885 20.8965 156.106 21.1727C156.327 21.4488 156.614 21.5869 156.968 21.5869C157.233 21.5869 157.431 21.5206 157.564 21.388C157.697 21.2555 157.763 21.0733 157.763 20.8413C157.763 20.5762 157.68 20.3387 157.514 20.1289C157.36 19.908 157.089 19.6374 156.702 19.317L155.543 18.3395C155.123 17.975 154.781 17.605 154.516 17.2295C154.261 16.8429 154.134 16.3624 154.134 15.788C154.134 15.2689 154.25 14.8271 154.482 14.4626C154.725 14.0871 155.051 13.7999 155.46 13.6011C155.88 13.3912 156.344 13.2863 156.852 13.2863C157.625 13.2863 158.243 13.5182 158.707 13.9821C159.182 14.435 159.486 15.0314 159.618 15.7715L158.144 16.4011C158.089 16.136 158.006 15.893 157.895 15.6721C157.796 15.4401 157.663 15.2523 157.498 15.1087C157.332 14.9652 157.139 14.8934 156.918 14.8934C156.686 14.8934 156.498 14.9652 156.355 15.1087C156.222 15.2523 156.156 15.4346 156.156 15.6555C156.156 15.8433 156.233 16.0366 156.388 16.2354C156.553 16.4342 156.785 16.6606 157.084 16.9147L158.26 17.975C158.514 18.1959 158.757 18.4334 158.989 18.6875C159.221 18.9415 159.414 19.2287 159.569 19.549C159.723 19.8583 159.801 20.2172 159.801 20.6259C159.801 21.1782 159.674 21.6421 159.42 22.0176C159.177 22.3932 158.84 22.6804 158.409 22.8792C157.989 23.0669 157.52 23.1608 157.001 23.1608Z" fill="white"/>
<path d="M54.3896 34.8281H53.899V28.3217H51.6365V27.8645H56.6521V28.3217H54.3896V34.8281ZM61.1818 34.8281V31.4701C61.1818 30.9494 61.0722 30.5715 60.8531 30.3365C60.634 30.0984 60.2942 29.9793 59.8338 29.9793C59.2146 29.9793 58.7605 30.1365 58.4716 30.4508C58.1858 30.762 58.0429 31.2685 58.0429 31.9703V34.8281H57.5713V27.4167H58.0429V29.7745L58.0191 30.4365H58.0524C58.2461 30.1254 58.4906 29.8999 58.7859 29.7602C59.0812 29.6205 59.448 29.5506 59.8862 29.5506C61.0611 29.5506 61.6485 30.1809 61.6485 31.4416V34.8281H61.1818ZM65.4162 34.9234C64.6636 34.9234 64.0761 34.6916 63.6538 34.228C63.2347 33.7644 63.0251 33.115 63.0251 32.2799C63.0251 31.4543 63.2283 30.7938 63.6348 30.2984C64.0412 29.7999 64.589 29.5506 65.278 29.5506C65.8877 29.5506 66.3688 29.7634 66.7213 30.1889C67.0737 30.6144 67.25 31.1923 67.25 31.9226V32.3037H63.5205C63.5268 33.015 63.6919 33.558 64.0158 33.9327C64.3429 34.3074 64.8097 34.4947 65.4162 34.4947C65.7115 34.4947 65.9703 34.4741 66.1926 34.4328C66.418 34.3915 66.7022 34.3026 67.0452 34.1661V34.5947C66.753 34.7217 66.4831 34.8075 66.2354 34.8519C65.9877 34.8996 65.7147 34.9234 65.4162 34.9234ZM65.278 29.9698C64.7795 29.9698 64.3794 30.1349 64.0777 30.4651C63.7761 30.7922 63.5998 31.2653 63.549 31.8845H66.7498C66.7498 31.2844 66.6196 30.816 66.3593 30.4794C66.0989 30.1396 65.7385 29.9698 65.278 29.9698ZM75.4949 32.2322C75.4949 33.0769 75.2901 33.7374 74.8805 34.2137C74.4708 34.6868 73.9056 34.9234 73.1848 34.9234C72.7307 34.9234 72.3306 34.8138 71.9845 34.5947C71.6384 34.3756 71.3732 34.0613 71.1891 33.6516C71.0049 33.242 70.9128 32.7689 70.9128 32.2322C70.9128 31.3876 71.1176 30.7303 71.5272 30.2603C71.9369 29.7872 72.4989 29.5506 73.2134 29.5506C73.9247 29.5506 74.4819 29.7903 74.8852 30.2698C75.2917 30.7461 75.4949 31.4003 75.4949 32.2322ZM71.4082 32.2322C71.4082 32.9435 71.5638 33.4992 71.8749 33.8993C72.1893 34.2962 72.6323 34.4947 73.2038 34.4947C73.7754 34.4947 74.2168 34.2962 74.528 33.8993C74.8424 33.4992 74.9995 32.9435 74.9995 32.2322C74.9995 31.5178 74.8408 30.9637 74.5232 30.5699C74.2089 30.1762 73.7659 29.9793 73.1943 29.9793C72.6227 29.9793 72.1814 30.1762 71.8702 30.5699C71.5622 30.9605 71.4082 31.5146 71.4082 32.2322ZM77.3382 29.6506V33.0039C77.3382 33.5246 77.4478 33.9041 77.6669 34.1422C77.886 34.3772 78.2258 34.4947 78.6862 34.4947C79.3022 34.4947 79.7547 34.3391 80.0437 34.0279C80.3358 33.7167 80.4819 33.2103 80.4819 32.5085V29.6506H80.9487V34.8281H80.5486L80.4628 34.1137H80.4342C80.0977 34.6535 79.4991 34.9234 78.6386 34.9234C77.4605 34.9234 76.8714 34.2931 76.8714 33.0324V29.6506H77.3382ZM84.0494 34.5042C84.3479 34.5042 84.6083 34.4788 84.8306 34.428V34.8091C84.602 34.8853 84.3384 34.9234 84.0399 34.9234C83.5827 34.9234 83.2445 34.8011 83.0254 34.5566C82.8094 34.3121 82.7015 33.9279 82.7015 33.404V30.0603H81.9346V29.784L82.7015 29.5697L82.9396 28.3979H83.1826V29.6506H84.702V30.0603H83.1826V33.3373C83.1826 33.7342 83.2524 34.0279 83.3921 34.2184C83.5319 34.409 83.751 34.5042 84.0494 34.5042ZM89.1603 33.4802C89.1603 33.9438 88.984 34.301 88.6316 34.5519C88.2791 34.7995 87.779 34.9234 87.1312 34.9234C86.4389 34.9234 85.8896 34.817 85.4831 34.6043V34.0946C86.0039 34.355 86.5533 34.4852 87.1312 34.4852C87.6424 34.4852 88.0298 34.401 88.2934 34.2327C88.5601 34.0613 88.6935 33.8342 88.6935 33.5516C88.6935 33.2912 88.5871 33.0721 88.3743 32.8943C88.1648 32.7165 87.8186 32.5418 87.336 32.3704C86.8184 32.183 86.4548 32.0227 86.2452 31.8893C86.0357 31.7527 85.8769 31.6003 85.7689 31.432C85.6641 31.2606 85.6117 31.0526 85.6117 30.8081C85.6117 30.4207 85.7737 30.1142 86.0976 29.8888C86.4246 29.6633 86.8803 29.5506 87.4646 29.5506C88.0235 29.5506 88.5538 29.6554 89.0555 29.865L88.8792 30.2936C88.3712 30.0841 87.8996 29.9793 87.4646 29.9793C87.0423 29.9793 86.7073 30.0491 86.4596 30.1889C86.2119 30.3286 86.0881 30.5223 86.0881 30.77C86.0881 31.0399 86.1833 31.2558 86.3738 31.4177C86.5675 31.5797 86.9438 31.7607 87.5027 31.9607C87.9695 32.129 88.3092 32.2815 88.522 32.418C88.7348 32.5514 88.8935 32.7038 88.9983 32.8753C89.1063 33.0467 89.1603 33.2484 89.1603 33.4802ZM91.8609 34.5042C92.1594 34.5042 92.4198 34.4788 92.6421 34.428V34.8091C92.4135 34.8853 92.1499 34.9234 91.8514 34.9234C91.3942 34.9234 91.056 34.8011 90.8369 34.5566C90.6209 34.3121 90.513 33.9279 90.513 33.404V30.0603H89.7461V29.784L90.513 29.5697L90.7511 28.3979H90.9941V29.6506H92.5135V30.0603H90.9941V33.3373C90.9941 33.7342 91.0639 34.0279 91.2036 34.2184C91.3433 34.409 91.5625 34.5042 91.8609 34.5042ZM96.9051 34.8281L96.786 34.0089H96.7479C96.4875 34.3423 96.2192 34.5789 95.9429 34.7186C95.6698 34.8551 95.3459 34.9234 94.9712 34.9234C94.4632 34.9234 94.0678 34.7932 93.7852 34.5328C93.5026 34.2724 93.3613 33.912 93.3613 33.4516C93.3613 32.9467 93.5709 32.5545 93.99 32.2751C94.4124 31.9957 95.0221 31.848 95.8191 31.8321L96.805 31.8036V31.4606C96.805 30.9684 96.705 30.5969 96.505 30.346C96.3049 30.0952 95.9826 29.9698 95.5381 29.9698C95.0586 29.9698 94.5616 30.1031 94.0472 30.3699L93.871 29.9602C94.4394 29.6935 95.0014 29.5601 95.5571 29.5601C96.1255 29.5601 96.5494 29.7078 96.8289 30.0031C97.1115 30.2984 97.2528 30.7588 97.2528 31.3844V34.8281H96.9051ZM94.9998 34.4947C95.5523 34.4947 95.9874 34.3375 96.3049 34.0232C96.6256 33.7056 96.786 33.2658 96.786 32.7038V32.1941L95.881 32.2322C95.1538 32.2672 94.6347 32.3815 94.3235 32.5752C94.0155 32.7657 93.8614 33.0642 93.8614 33.4706C93.8614 33.7945 93.9599 34.047 94.1568 34.228C94.3568 34.4058 94.6378 34.4947 94.9998 34.4947ZM100.858 30.0603H99.6391V34.8281H99.1675V30.0603H98.2054V29.784L99.1675 29.6078V29.2077C99.1675 28.5726 99.2834 28.1074 99.5153 27.8121C99.7502 27.5136 100.133 27.3643 100.663 27.3643C100.949 27.3643 101.235 27.4072 101.521 27.4929L101.411 27.9026C101.157 27.8232 100.904 27.7835 100.654 27.7835C100.285 27.7835 100.023 27.893 99.8677 28.1121C99.7153 28.3281 99.6391 28.6805 99.6391 29.1696V29.6506H100.858V30.0603ZM103.783 30.0603H102.564V34.8281H102.092V30.0603H101.13V29.784L102.092 29.6078V29.2077C102.092 28.5726 102.208 28.1074 102.44 27.8121C102.675 27.5136 103.057 27.3643 103.588 27.3643C103.873 27.3643 104.159 27.4072 104.445 27.4929L104.336 27.9026C104.081 27.8232 103.829 27.7835 103.578 27.7835C103.21 27.7835 102.948 27.893 102.792 28.1121C102.64 28.3281 102.564 28.6805 102.564 29.1696V29.6506H103.783V30.0603ZM105.26 34.8281H104.788V29.6506H105.26V34.8281ZM104.721 28.2122C104.721 27.9073 104.821 27.7549 105.021 27.7549C105.12 27.7549 105.196 27.7946 105.25 27.874C105.307 27.9534 105.336 28.0661 105.336 28.2122C105.336 28.3551 105.307 28.4678 105.25 28.5503C105.196 28.6329 105.12 28.6742 105.021 28.6742C104.821 28.6742 104.721 28.5202 104.721 28.2122ZM110.604 34.8281V31.4701C110.604 30.9494 110.494 30.5715 110.275 30.3365C110.056 30.0984 109.716 29.9793 109.256 29.9793C108.637 29.9793 108.183 30.1365 107.894 30.4508C107.608 30.762 107.465 31.2685 107.465 31.9703V34.8281H106.993V29.6506H107.393L107.484 30.3603H107.513C107.849 29.8205 108.448 29.5506 109.308 29.5506C110.483 29.5506 111.071 30.1809 111.071 31.4416V34.8281H110.604ZM116.786 29.6506V29.9793L115.715 30.046C116 30.4016 116.143 30.7922 116.143 31.2177C116.143 31.7162 115.977 32.1211 115.643 32.4323C115.313 32.7403 114.868 32.8943 114.309 32.8943C114.074 32.8943 113.909 32.8848 113.814 32.8657C113.627 32.9642 113.484 33.0801 113.385 33.2134C113.287 33.3468 113.238 33.4881 113.238 33.6373C113.238 33.8025 113.3 33.9231 113.424 33.9993C113.551 34.0756 113.762 34.1137 114.057 34.1137H114.962C115.524 34.1137 115.954 34.228 116.253 34.4566C116.551 34.6821 116.701 35.0171 116.701 35.4616C116.701 36.0078 116.478 36.4285 116.034 36.7238C115.592 37.0223 114.962 37.1716 114.143 37.1716C113.492 37.1716 112.987 37.0461 112.628 36.7953C112.272 36.5444 112.095 36.1951 112.095 35.7474C112.095 35.3918 112.204 35.0964 112.423 34.8615C112.646 34.6265 112.946 34.4661 113.324 34.3804C113.168 34.3137 113.042 34.22 112.947 34.0994C112.855 33.9755 112.809 33.8342 112.809 33.6755C112.809 33.3293 113.03 33.0245 113.471 32.7609C113.169 32.6371 112.935 32.4434 112.766 32.1798C112.598 31.9131 112.514 31.6083 112.514 31.2653C112.514 30.7477 112.677 30.3333 113.004 30.0221C113.335 29.7078 113.779 29.5506 114.338 29.5506C114.678 29.5506 114.941 29.5839 115.129 29.6506H116.786ZM112.595 35.7045C112.595 36.4158 113.123 36.7715 114.181 36.7715C115.54 36.7715 116.219 36.338 116.219 35.4711C116.219 35.16 116.113 34.9345 115.9 34.7948C115.688 34.6551 115.343 34.5852 114.867 34.5852H114.019C113.069 34.5852 112.595 34.9583 112.595 35.7045ZM112.99 31.2653C112.99 31.6654 113.111 31.9766 113.352 32.1989C113.597 32.418 113.922 32.5275 114.329 32.5275C114.76 32.5275 115.091 32.418 115.319 32.1989C115.551 31.9798 115.667 31.6622 115.667 31.2463C115.667 30.8049 115.548 30.4746 115.31 30.2555C115.075 30.0333 114.744 29.9221 114.319 29.9221C113.906 29.9221 113.581 30.0412 113.343 30.2794C113.108 30.5143 112.99 30.843 112.99 31.2653ZM122.454 34.9234C121.715 34.9234 121.135 34.69 120.716 34.2232C120.297 33.7564 120.087 33.1055 120.087 32.2703C120.087 31.413 120.305 30.7461 120.74 30.2698C121.175 29.7903 121.77 29.5506 122.526 29.5506C122.974 29.5506 123.402 29.6284 123.812 29.784L123.683 30.2031C123.236 30.0539 122.847 29.9793 122.516 29.9793C121.881 29.9793 121.4 30.1762 121.073 30.5699C120.746 30.9605 120.582 31.5241 120.582 32.2608C120.582 32.9594 120.746 33.5072 121.073 33.9041C121.4 34.2978 121.857 34.4947 122.445 34.4947C122.915 34.4947 123.351 34.4106 123.755 34.2423V34.6805C123.424 34.8424 122.991 34.9234 122.454 34.9234ZM129.308 32.2322C129.308 33.0769 129.104 33.7374 128.694 34.2137C128.284 34.6868 127.719 34.9234 126.998 34.9234C126.544 34.9234 126.144 34.8138 125.798 34.5947C125.452 34.3756 125.187 34.0613 125.003 33.6516C124.818 33.242 124.726 32.7689 124.726 32.2322C124.726 31.3876 124.931 30.7303 125.341 30.2603C125.75 29.7872 126.312 29.5506 127.027 29.5506C127.738 29.5506 128.296 29.7903 128.699 30.2698C129.105 30.7461 129.308 31.4003 129.308 32.2322ZM125.222 32.2322C125.222 32.9435 125.377 33.4992 125.689 33.8993C126.003 34.2962 126.446 34.4947 127.017 34.4947C127.589 34.4947 128.03 34.2962 128.342 33.8993C128.656 33.4992 128.813 32.9435 128.813 32.2322C128.813 31.5178 128.654 30.9637 128.337 30.5699C128.022 30.1762 127.579 29.9793 127.008 29.9793C126.436 29.9793 125.995 30.1762 125.684 30.5699C125.376 30.9605 125.222 31.5146 125.222 32.2322ZM137.21 34.8281V31.432C137.21 30.9271 137.112 30.5588 136.915 30.327C136.718 30.0952 136.417 29.9793 136.01 29.9793C135.48 29.9793 135.088 30.1254 134.834 30.4175C134.58 30.7096 134.453 31.1685 134.453 31.794V34.8281H133.972V31.2891C133.972 30.4159 133.571 29.9793 132.771 29.9793C132.228 29.9793 131.833 30.1381 131.585 30.4556C131.338 30.77 131.214 31.2748 131.214 31.9703V34.8281H130.742V29.6506H131.133L131.233 30.3603H131.261C131.404 30.1031 131.607 29.9047 131.871 29.7649C132.135 29.622 132.425 29.5506 132.743 29.5506C133.559 29.5506 134.083 29.857 134.315 30.4699H134.334C134.502 30.1746 134.727 29.9475 135.01 29.7888C135.296 29.63 135.62 29.5506 135.982 29.5506C136.547 29.5506 136.971 29.7014 137.253 30.0031C137.536 30.3048 137.677 30.7842 137.677 31.4416V34.8281H137.21ZM141.569 34.9234C140.772 34.9234 140.191 34.6249 139.825 34.0279H139.792L139.806 34.428C139.819 34.663 139.825 34.9202 139.825 35.1996V37.1716H139.354V29.6506H139.754L139.844 30.3889H139.873C140.229 29.83 140.797 29.5506 141.578 29.5506C142.277 29.5506 142.809 29.7808 143.174 30.2413C143.542 30.6985 143.726 31.3653 143.726 32.2418C143.726 33.0928 143.533 33.7533 143.145 34.2232C142.761 34.69 142.236 34.9234 141.569 34.9234ZM141.559 34.5042C142.089 34.5042 142.499 34.3074 142.788 33.9136C143.08 33.5199 143.226 32.9689 143.226 32.2608C143.226 30.7398 142.677 29.9793 141.578 29.9793C140.975 29.9793 140.532 30.146 140.249 30.4794C139.967 30.8097 139.825 31.3495 139.825 32.0989V32.2513C139.825 33.061 139.96 33.6389 140.23 33.9851C140.503 34.3312 140.946 34.5042 141.559 34.5042ZM148.309 34.8281L148.189 34.0089H148.151C147.891 34.3423 147.623 34.5789 147.346 34.7186C147.073 34.8551 146.749 34.9234 146.375 34.9234C145.867 34.9234 145.471 34.7932 145.189 34.5328C144.906 34.2724 144.765 33.912 144.765 33.4516C144.765 32.9467 144.974 32.5545 145.394 32.2751C145.816 31.9957 146.426 31.848 147.223 31.8321L148.208 31.8036V31.4606C148.208 30.9684 148.108 30.5969 147.908 30.346C147.708 30.0952 147.386 29.9698 146.942 29.9698C146.462 29.9698 145.965 30.1031 145.451 30.3699L145.274 29.9602C145.843 29.6935 146.405 29.5601 146.961 29.5601C147.529 29.5601 147.953 29.7078 148.232 30.0031C148.515 30.2984 148.656 30.7588 148.656 31.3844V34.8281H148.309ZM146.403 34.4947C146.956 34.4947 147.391 34.3375 147.708 34.0232C148.029 33.7056 148.189 33.2658 148.189 32.7038V32.1941L147.284 32.2322C146.557 32.2672 146.038 32.3815 145.727 32.5752C145.419 32.7657 145.265 33.0642 145.265 33.4706C145.265 33.7945 145.363 34.047 145.56 34.228C145.76 34.4058 146.041 34.4947 146.403 34.4947ZM153.948 34.8281V31.4701C153.948 30.9494 153.838 30.5715 153.619 30.3365C153.4 30.0984 153.061 29.9793 152.6 29.9793C151.981 29.9793 151.527 30.1365 151.238 30.4508C150.952 30.762 150.809 31.2685 150.809 31.9703V34.8281H150.338V29.6506H150.738L150.828 30.3603H150.857C151.193 29.8205 151.792 29.5506 152.652 29.5506C153.827 29.5506 154.415 30.1809 154.415 31.4416V34.8281H153.948ZM155.225 29.6506H155.71L156.806 32.5561C157.139 33.4484 157.35 34.0502 157.439 34.3613H157.468C157.601 33.9517 157.819 33.3404 158.121 32.5275L159.216 29.6506H159.702L157.382 35.6664C157.195 36.1554 157.038 36.4857 156.911 36.6572C156.784 36.8286 156.634 36.9572 156.463 37.043C156.295 37.1287 156.09 37.1716 155.849 37.1716C155.668 37.1716 155.466 37.1382 155.244 37.0715V36.6619C155.428 36.7127 155.626 36.7381 155.839 36.7381C156.001 36.7381 156.144 36.7 156.268 36.6238C156.392 36.5476 156.503 36.4285 156.601 36.2666C156.703 36.1078 156.819 35.8538 156.949 35.5045C157.082 35.1584 157.168 34.9329 157.206 34.8281L155.225 29.6506Z" fill="white"/>
<g opacity="0.3">
<path opacity="0.3" d="M3.45264 0.851562L14.6624 7.32519H43.1505V0.851562H3.45264Z" fill="white"/>
<path opacity="0.3" d="M17.2596 16.7958C12.7049 19.0164 8.61625 22.0421 5.17856 25.6883V9.8204L17.2596 16.7958ZM0.00847607 44.0023V44.004H0.0067806C2.04261 36.9371 6.13461 30.7415 11.5912 26.1053L21.9246 44.004H27.9032L15.7815 23.0236C19.8531 20.4487 24.4638 18.6485 29.4051 17.8298L0 0.851562V44.0023" fill="white"/>
<path opacity="0.3" d="M34.9885 19.0581L43.1504 19.0547V25.5266H19.229L18.1289 23.623C23.1176 20.7922 28.864 19.1428 34.9885 19.0581Z" fill="white"/>
<path opacity="0.3" d="M26.1704 37.5352L29.9098 44.0088H43.1537V37.5352H26.1704Z" fill="white"/>
</g>
<path d="M4.30029 0L15.5101 6.47363H43.9981V0H4.30029Z" fill="#F78F01"/>
<path d="M18.1073 15.9442C13.5525 18.1648 9.46391 21.1906 6.02622 24.8368V8.96883L18.1073 15.9442ZM0.856132 43.1508V43.1524H0.854437C2.89027 36.0855 6.98226 29.8899 12.4388 25.2538L22.7722 43.1524H28.7509L16.6291 22.1721C20.7008 19.5972 25.3115 17.797 30.2528 16.9782L0.847656 0V43.1508" fill="#FBBF13"/>
<path d="M35.8361 18.2065L43.9981 18.2031V24.6751H20.0767L18.9766 22.7715C23.9653 19.9406 29.7117 18.2913 35.8361 18.2065Z" fill="#F78F01"/>
<path d="M27.0186 36.6758L30.758 43.1494H44.0019V36.6758H27.0186Z" fill="#F78F01"/>
</svg>
