<svg width="750" height="510" viewBox="0 0 750 510" fill="none" xmlns="http://www.w3.org/2000/svg">
<path d="M309.756 382.566C309.756 382.566 301.007 464.754 293.528 474.251C286.05 483.749 260.773 488.46 260.773 501.099C260.773 513.737 470.915 512.167 472.561 501.099C474.131 490.031 452.519 482.104 444.367 474.251C436.216 466.324 426.718 382.566 426.718 382.566H309.756Z" fill="#361F39"/>
<path d="M293.603 491.219L293.453 488.826C294.351 488.751 383.568 484.114 444.367 488.826L444.217 491.219C383.568 486.507 294.5 491.144 293.603 491.219Z" fill="#EACFBC"/>
<path d="M137.08 88.9624C121.899 95.0947 119.506 388.247 136.93 404.101C154.28 419.881 585.708 416.74 592.065 404.101C598.421 391.463 611.882 102.349 587.129 86.4946C562.45 70.5656 174.023 74.0805 137.08 88.9624Z" fill="#361F39"/>
<path d="M151.288 105.79C139.323 114.315 143.361 343.976 151.288 353.474C159.216 362.971 562.151 362.971 573.219 353.474C584.287 343.976 581.146 115.736 573.219 105.79C565.366 95.9184 163.927 96.741 151.288 105.79Z" fill="#C7E5F7"/>
<path d="M365.993 400.521C365.619 400.521 365.245 400.521 364.796 400.446C356.42 399.773 353.653 393.416 353.878 388.181C354.102 381.974 358.29 375.543 364.871 375.543C371.078 375.543 375.789 377.712 378.033 381.6C380.052 385.115 379.902 389.752 377.659 393.641C375.266 397.978 370.854 400.521 365.993 400.521ZM364.946 378.011C359.786 378.011 356.495 383.246 356.346 388.331C356.196 392.743 358.365 397.604 365.095 398.128C365.394 398.128 365.768 398.203 366.067 398.203C370.106 398.203 373.695 396.109 375.715 392.594C377.584 389.378 377.734 385.639 376.088 382.872C374.219 379.731 370.255 378.011 364.946 378.011Z" fill="#EACFBC"/>
<path d="M179.332 357.146C214.779 359.315 279.243 360.436 345.875 360.586C340.266 346.227 331.068 328.429 323.665 314.295C310.652 289.541 297.565 261.348 307.661 263.292C317.757 265.236 343.781 257.235 344.38 232.332C344.978 207.429 340.79 208.625 308.857 205.26C276.85 201.895 273.858 199.726 254.938 199.277C235.943 198.903 228.839 200.249 192.419 209.747C149.119 221.039 135.658 235.846 113.223 251.85C90.7877 267.854 47.114 285.578 47.6375 296.272C48.161 306.966 54.4428 330.672 75.3075 333.589C96.1722 336.58 144.183 304.573 150.989 303.975C156.224 303.601 172.302 340.394 179.332 357.146Z" fill="#C1B49A"/>
<path d="M170.507 216.695C168.712 217.368 166.993 218.041 165.347 218.714C161.907 224.323 157.42 232.4 157.196 237.037C156.822 244.739 170.806 254.611 171.48 257.004C172.153 259.397 166.619 265.679 169.61 274.802C172.601 283.926 191.746 305.987 191.746 305.987L170.507 216.695Z" fill="#9A8479"/>
<path d="M253.592 283.104C253.592 283.104 255.985 254.686 253.592 243.169C251.199 231.727 242.076 232.176 240.131 229.783C238.187 227.39 240.954 215.499 237.439 209.217C235.943 206.525 232.354 203.608 228.689 201.141C225.399 201.739 221.734 202.487 217.546 203.534C224.8 217.369 247.909 261.94 253.592 283.104Z" fill="#9A8479"/>
<path d="M175.519 173.101C175.519 173.101 175.668 219.317 182.698 224.627C189.727 229.937 205.731 236.443 209.321 213.933C209.321 213.933 205.731 184.917 205.208 158.817C205.208 158.892 186.213 152.386 175.519 173.101Z" fill="#EFBEB3"/>
<path d="M208.049 201.97C207.002 191.126 205.582 174.449 205.208 158.894C205.208 158.894 186.213 152.388 175.593 173.103C175.593 173.103 175.668 184.994 176.565 197.408C184.418 200.624 197.056 204.587 208.049 201.97Z" fill="#DB9B93"/>
<path d="M185.016 109.684C161.309 108.862 151.812 126.286 153.607 151.189C155.401 176.092 160.113 190.301 174.92 190.301C189.727 190.301 206.329 174.297 211.041 149.993C215.827 125.688 202.216 110.282 185.016 109.684Z" fill="#EFBEB3"/>
<path d="M158.169 118.589C158.169 118.589 142.614 117.094 145.306 129.807C147.998 142.52 181.726 135.416 185.614 129.807C189.503 124.198 166.918 119.262 158.169 118.589Z" fill="#F6921E"/>
<path d="M188.305 128.378C188.305 128.378 191.521 162.106 199.224 164.2L203.711 169.883C203.711 169.883 201.393 178.409 206.254 180.802C211.114 183.195 210.815 179.157 216.125 169.883C221.435 160.61 228.838 153.431 219.116 139.895C219.116 139.895 220.612 123.891 209.32 113.496C198.027 103.101 182.248 102.354 172.601 104.896C162.954 107.439 150.689 121.797 150.988 127.705C151.287 133.613 180.677 133.688 188.305 128.378Z" fill="#F6921E"/>
<path d="M156.224 123.896C156.224 123.896 166.993 93.0853 175.593 90.1687C184.193 87.1774 212.312 96.0767 217.696 108.266C223.006 120.381 219.192 139.975 219.192 139.975C219.192 139.975 188.68 134.665 172.677 128.383L156.224 123.896Z" fill="#C1B49A"/>
<path d="M199.224 164.2C199.224 164.2 208.572 143.784 212.012 151.188C215.527 158.591 203.636 169.884 203.636 169.884L199.224 164.2Z" fill="#EFBEB3"/>
<path d="M172.601 128.383C172.601 128.383 145.903 122.176 137.079 115.969C128.179 109.762 132.068 94.0577 145.08 96.1517C158.093 98.1708 165.197 114.1 172.601 128.383Z" fill="#5A4A42"/>
<path d="M150.091 304.263C150.016 304.039 145.006 279.809 144.108 247.278C144.033 243.613 143.809 241.295 143.659 239.949C142.164 248.325 140.593 278.388 145.828 296.336L144.108 296.859C138.2 276.593 140.369 238.902 142.986 236.584L144.108 236.359C144.706 236.659 145.529 236.958 145.828 247.278C146.725 279.659 151.661 303.74 151.736 303.964L150.091 304.263Z" fill="#5A4A42"/>
<path d="M79.6449 327.603C76.4292 327.603 72.7648 326.706 68.8013 324.986L69.5491 323.34C77.4762 326.78 83.8328 326.631 87.4972 322.817C92.059 318.106 91.9095 308.309 87.1982 298.512C78.7476 280.938 70.8953 277.348 70.8205 277.348L71.4936 275.703C71.8675 275.853 79.9441 279.517 88.7686 297.764C93.9287 308.458 93.8539 318.779 88.7686 324.088C86.4503 326.481 83.3841 327.603 79.6449 327.603Z" fill="#5A4A42"/>
<path d="M91.0119 213.485C87.3474 217.823 83.9822 225.974 81.6639 231.508C79.3456 237.042 76.5785 267.329 75.8307 280.566C75.1576 293.803 78.9717 316.238 77.1021 318.257C75.2325 320.202 50.3294 324.09 43.225 308.76C36.1205 293.354 67.6793 219.094 69.0254 215.504C70.3715 211.915 60.1261 200.398 62.2201 197.631C64.3888 194.789 74.1855 184.992 76.9525 183.796C79.7942 182.599 107.24 194.116 91.0119 213.485Z" fill="#EFBEB3"/>
<path d="M104.922 183.574C104.922 183.574 94.6021 198.531 89.0681 206.458C83.4593 214.385 80.3183 221.564 77.6261 222.312C74.9339 223.06 60.9493 217.152 59.1545 215.956C57.3597 214.759 54.2936 209.001 55.5649 206.682C56.8362 204.364 80.9166 172.805 83.0105 171.459C85.1045 170.188 107.016 180.957 104.922 183.574Z" fill="#361F39"/>
<path d="M136.331 161.734C136.331 161.734 143.436 166.446 143.51 170.559C143.66 174.672 138.5 184.319 135.06 187.684C131.62 191.05 128.928 192.022 127.133 191.498C125.413 191.05 118.159 187.61 118.159 187.61L136.331 161.734Z" fill="#361F39"/>
<path d="M69.9235 65.56C72.0174 68.4765 89.2178 104.298 106.044 123.742C122.945 143.26 141.043 158.965 140.819 161.657C140.519 164.349 141.267 169.659 135.808 178.783C130.349 187.981 121.674 189.701 117.86 189.178C114.046 188.729 79.795 169.734 50.3302 162.031C20.8653 154.254 6.50684 150.066 2.31895 147.299C-1.86895 144.606 -2.39242 118.283 18.3227 91.8838C39.0378 65.5599 66.4087 60.5494 69.9235 65.56Z" fill="white"/>
<path d="M18.3227 91.9578C39.0378 65.5591 66.3338 60.5486 69.9235 65.5591C72.7652 70.7192 65.8104 96.5944 46.5162 119.703C27.222 142.811 8.9747 150.14 2.39373 147.373C-1.79417 144.68 -2.31766 118.356 18.3227 91.9578Z" fill="#BBBDBF"/>
<path d="M76.1308 195.383C80.9169 188.353 87.8719 177.958 87.9466 177.883L87.0492 177.285C86.9744 177.36 80.0196 187.755 75.2334 194.785L76.1308 195.383Z" fill="white"/>
<path d="M62.5193 213.931C64.3889 212.21 72.3908 200.395 72.7647 199.946L71.8673 199.348C71.7926 199.497 63.5663 211.537 61.7715 213.183L62.5193 213.931Z" fill="white"/>
<path d="M41.0566 109.086C44.2723 104.225 50.3298 104.001 55.8638 106.918C53.1716 111.18 50.0307 115.518 46.5158 119.78C45.3941 121.126 44.2723 122.398 43.1506 123.669C40.0096 119.257 37.5417 114.396 41.0566 109.086Z" fill="#BF4634"/>
<path d="M106.118 123.744C106.118 123.744 109.035 122.099 111.577 123.52C114.045 124.866 128.553 139.822 129.899 143.412C131.171 147.002 129.226 154.929 121.449 166.819C113.671 178.71 107.39 186.712 102.977 186.263C98.565 185.814 80.9908 178.187 80.3177 176.167C79.5699 174.148 79.4951 172.204 79.4951 172.204C79.4951 172.204 83.0099 172.428 85.2534 170.185C87.497 167.941 95.798 156.649 101.781 146.553C107.763 136.457 110.082 128.231 109.558 127.558C108.81 126.885 106.118 123.744 106.118 123.744Z" fill="#BF4634"/>
<path d="M123.693 149.317L124.44 148.569C124.066 148.195 115.317 139.52 112.251 137.352L111.652 138.249C114.644 140.418 123.618 149.242 123.693 149.317Z" fill="#361F39"/>
<path d="M119.431 161.651L120.104 160.828C119.655 160.454 110.008 152.452 106.493 150.508L105.97 151.405C109.335 153.35 119.356 161.576 119.431 161.651Z" fill="#361F39"/>
<path d="M99.253 160.849L98.7466 161.766L112.755 169.507L113.261 168.59L99.253 160.849Z" fill="#361F39"/>
<path d="M92.8813 172.277C95.6483 173.847 106.118 178.409 106.492 178.559L106.941 177.587C106.866 177.512 96.1718 172.8 93.4048 171.305L92.8813 172.277Z" fill="#361F39"/>
<path d="M79.0475 179.759C81.7397 181.105 77.5519 188.583 75.2336 186.639C72.9153 184.694 76.9536 178.712 79.0475 179.759Z" fill="#BF4634"/>
<path d="M16.005 150.503C16.2294 150.429 35.7479 146.166 54.5187 122.459C73.2894 98.753 74.5608 78.9353 74.5608 78.7857L73.5138 78.7109C73.5138 78.9353 72.2425 98.3791 53.6961 121.786C35.2245 145.194 16.005 149.382 15.8555 149.456L16.005 150.503Z" fill="#BBBDBF"/>
<path d="M54.3336 77.6849L53.3013 77.8594L55.4206 90.3946L56.4529 90.2201L54.3336 77.6849Z" fill="white"/>
<path d="M31.6158 85.2976L30.7695 85.9141L40.0164 98.6081L40.8626 97.9917L31.6158 85.2976Z" fill="white"/>
<path d="M19.1652 107.256L18.7817 108.23L32.1424 113.488L32.5258 112.514L19.1652 107.256Z" fill="white"/>
<path d="M28.986 125.76L16.7227 125.902L16.7348 126.949L28.9982 126.807L28.986 125.76Z" fill="white"/>
<path d="M91.0119 213.486C95.125 207.279 99.3128 201.446 98.2659 195.986C97.2937 190.527 86.0013 183.572 82.5613 181.628C79.0464 179.683 85.0292 191.574 86.8988 194.117C88.7683 196.585 83.0847 197.482 80.6917 205.334C78.2986 213.261 85.1039 222.31 91.0119 213.486Z" fill="#EFBEB3"/>
<path d="M72.6906 178.86C77.8507 174.747 83.1604 190.675 80.169 195.088C77.2524 199.425 68.5027 208.025 63.1931 204.436C57.9582 200.846 64.3896 185.441 72.6906 178.86Z" fill="#EFBEB3"/>
<path d="M151.737 142.139C151.438 144.457 153.532 142.288 157.046 141.914C159.29 141.69 161.907 142.961 162.506 141.69C163.254 139.97 160.487 138.399 157.645 138.549C154.878 138.624 151.961 140.493 151.737 142.139Z" fill="#F6921E"/>
<path d="M169.011 149.992C169.011 149.992 166.02 157.022 163.328 158.592C158.617 161.359 158.691 166.893 163.702 166.669C168.712 166.519 170.731 162.107 169.011 149.992Z" fill="#DB9B93"/>
<path d="M180.454 147.227C179.257 147.301 178.285 148.348 178.36 149.545C178.435 150.741 179.482 151.714 180.678 151.639C181.875 151.564 182.847 150.517 182.772 149.321C182.697 148.124 181.651 147.227 180.454 147.227Z" fill="#5A4A42"/>
<path d="M158.99 148.274C157.794 148.348 156.821 149.395 156.896 150.592C156.971 151.788 158.018 152.761 159.214 152.686C160.411 152.611 161.383 151.564 161.308 150.368C161.234 149.171 160.187 148.199 158.99 148.274Z" fill="#5A4A42"/>
<path d="M187.109 140.495C187.633 142.739 185.315 140.794 181.8 140.719C179.556 140.719 177.088 142.215 176.341 140.944C175.443 139.299 178.061 137.504 180.902 137.354C183.744 137.279 186.735 138.85 187.109 140.495Z" fill="#F6921E"/>
<path d="M183.52 166.964C183.52 166.964 170.208 166.665 159.589 171.825C159.589 171.825 162.954 178.257 171.554 178.331C180.154 178.406 183.52 166.964 183.52 166.964Z" fill="white"/>
<path d="M336.901 353.479C309.231 352.582 297.341 341.963 296.817 341.514L298.014 340.168C298.163 340.243 309.979 350.862 336.976 351.685L336.901 353.479Z" fill="#5A4A42"/>
<path d="M209.171 358.497C232.354 359.319 260.921 359.918 291.807 360.217C281.562 340.025 269.073 314.674 256.734 281.544C234.822 222.914 220.763 202.797 220.763 202.797C213.583 204.367 204.684 206.686 192.494 209.827C183.745 212.145 176.191 214.538 169.536 217.081C169.536 217.155 178.585 280.647 196.383 326.115C200.496 336.884 204.908 347.878 209.171 358.497Z" fill="#5A4A42"/>
<path d="M322.318 122.543C322.318 122.543 335.705 155.897 347.521 183.866C359.336 211.835 354.849 233.073 339.967 240.103C325.085 247.133 309.53 136.827 309.53 136.827C309.53 136.827 309.156 123.44 322.318 122.543Z" fill="#DB9B93"/>
<path d="M631.101 189.107C632.672 194.566 632.448 203.391 632.298 209.374C632.148 215.356 622.352 244.148 617.566 256.487C612.854 268.827 600.141 287.822 601.038 290.365C601.936 292.907 623.1 306.667 635.888 295.525C648.601 284.382 650.171 203.69 650.396 199.876C650.62 196.062 664.679 189.78 663.932 186.34C663.109 182.9 658.173 169.888 656.079 167.719C653.985 165.476 624.221 164.877 631.101 189.107Z" fill="#EFBEB3"/>
<path d="M630.578 156.142C630.578 156.142 633.868 174.016 635.738 183.513C637.608 193.011 637.608 200.863 639.702 202.658C641.796 204.453 657.051 204.752 659.145 204.378C661.239 204.004 666.474 200.04 666.25 197.348C666.025 194.656 656.902 156.067 655.556 154.048C654.135 151.954 629.755 152.852 630.578 156.142Z" fill="#361F39"/>
<path d="M610.834 123.387C610.834 123.387 602.459 124.808 600.664 128.547C598.869 132.286 599.617 143.13 601.412 147.617C603.132 152.104 605.3 154.048 607.02 154.347C608.815 154.646 616.817 154.422 616.817 154.422L610.834 123.387Z" fill="#361F39"/>
<path d="M710.671 62.6579C707.605 64.4528 677.317 90.1784 653.91 101.097C630.577 112.015 607.544 118.97 606.721 121.513C605.899 124.055 603.057 128.617 604.328 139.237C605.6 149.856 612.779 154.941 616.443 156.063C620.108 157.185 659.145 153.894 689.208 158.83C719.271 163.766 734.078 165.71 739.014 164.962C743.95 164.214 755.167 140.358 747.016 107.827C738.864 75.2964 715.981 59.5918 710.671 62.6579Z" fill="white"/>
<path d="M747.016 107.827C738.864 75.2964 715.981 59.5918 710.671 62.6579C705.96 66.2476 701.772 92.721 709.998 121.662C718.149 150.604 731.91 164.813 739.014 164.887C743.95 164.14 755.167 140.358 747.016 107.827Z" fill="#BBBDBF"/>
<path d="M652.04 178.65C650.545 170.275 648.451 157.935 648.376 157.861L649.423 157.711C649.423 157.861 651.592 170.125 653.087 178.501L652.04 178.65Z" fill="white"/>
<path d="M656.9 201.153C655.853 198.835 653.385 184.776 653.235 184.177L654.282 183.953C654.282 184.103 656.9 198.461 657.872 200.705L656.9 201.153Z" fill="white"/>
<path d="M719.271 114.111C718.299 108.353 712.915 105.735 706.633 106.109C707.381 111.12 708.428 116.355 709.923 121.664C710.372 123.384 710.896 124.955 711.419 126.6C716.13 123.908 720.318 120.393 719.271 114.111Z" fill="#BF4634"/>
<path d="M653.909 101.094C653.909 101.094 651.89 98.4022 649.048 98.6266C646.207 98.8509 626.838 106.554 624.22 109.321C621.603 112.013 620.107 120.09 622.425 134.149C624.669 148.208 627.137 158.005 631.4 159.426C635.662 160.847 654.732 160.996 656.228 159.426C657.723 157.855 658.621 156.135 658.621 156.135C658.621 156.135 655.33 154.864 654.134 151.947C653.012 149.031 650.021 135.345 648.675 123.679C647.328 112.013 648.525 103.488 649.348 103.188C650.17 102.814 653.909 101.094 653.909 101.094Z" fill="#BF4634"/>
<path d="M627.436 117.246L627.062 116.274C627.586 116.124 639.103 111.787 642.767 111.039L642.991 112.086C639.327 112.759 627.511 117.171 627.436 117.246Z" fill="#361F39"/>
<path d="M626.315 130.189L626.016 129.142C626.539 128.993 638.654 125.627 642.692 125.328L642.767 126.375C638.878 126.749 626.464 130.189 626.315 130.189Z" fill="#361F39"/>
<path d="M645.081 137.726L629.135 139.082L629.223 140.125L645.17 138.769L645.081 137.726Z" fill="#361F39"/>
<path d="M646.206 150.754C642.991 151.053 631.624 150.978 631.175 150.978V149.931C631.324 149.931 642.991 150.006 646.132 149.707L646.206 150.754Z" fill="#361F39"/>
<path d="M655.779 163.161C652.713 163.31 653.536 171.761 656.453 170.938C659.369 170.19 658.173 163.086 655.779 163.161Z" fill="#BF4634"/>
<path d="M725.254 162.199C725.105 162.049 709.026 150.233 701.548 120.918C694.069 91.6028 701.024 73.0564 701.099 72.832L702.071 73.206C701.997 73.3555 695.191 91.6776 702.595 120.619C709.924 149.485 725.778 161.152 725.927 161.301L725.254 162.199Z" fill="#BBBDBF"/>
<path d="M719.966 80.0998L712.916 90.6797L713.787 91.2602L720.837 80.6803L719.966 80.0998Z" fill="white"/>
<path d="M737.551 96.2275L723.932 104.047L724.453 104.955L738.072 97.1355L737.551 96.2275Z" fill="white"/>
<path d="M725.652 120.688L725.604 121.734L739.949 122.382L739.996 121.336L725.652 120.688Z" fill="white"/>
<path d="M723.416 134.283L722.978 135.234L734.117 140.364L734.555 139.414L723.416 134.283Z" fill="white"/>
<path d="M631.102 189.103C629.906 181.775 628.485 174.745 631.551 170.183C634.692 165.621 647.779 163.826 651.742 163.527C655.706 163.228 645.386 171.604 642.694 173.1C640.001 174.595 644.788 177.736 643.815 185.888C642.843 194.114 632.897 199.573 631.102 189.103Z" fill="#EFBEB3"/>
<path d="M661.987 165.025C658.921 159.192 647.629 171.606 648.526 176.767C649.424 181.927 653.911 193.369 660.192 192.247C666.474 191.05 666.848 174.299 661.987 165.025Z" fill="#EFBEB3"/>
<path d="M525.807 89.6493C525.807 89.6493 511.598 96.0808 501.277 114.851C489.686 135.941 474.804 152.243 461.792 155.609C448.779 158.899 441.675 174.305 449.976 190.308C458.277 206.312 424.699 221.568 442.871 250.135C461.044 278.703 490.883 269.13 511.598 259.633C532.313 250.135 543.156 264.344 564.096 246.621C585.035 228.897 569.406 203.919 571.873 190.308C574.341 176.698 584.437 173.033 584.437 155.609C584.437 138.184 568.359 133.024 571.873 118.591C575.538 103.709 566.788 77.6839 525.807 89.6493Z" fill="#90278E"/>
<path d="M620.631 245.409C599.318 237.707 567.161 208.541 545.324 202.783C518.103 195.603 489.834 189.471 489.834 189.471C466.502 189.097 453.49 190.069 423.875 231.35C394.261 272.631 394.859 285.568 401.365 311.369C407.871 337.169 409.068 350.855 423.875 354.968C423.875 354.968 423.875 354.968 428.362 360.203C486.394 359.604 537.098 358.183 560.206 355.865C562.45 344.348 564.02 332.084 564.618 321.764C566.039 295.664 571.947 280.857 571.947 280.857C571.947 280.857 634.84 316.978 650.844 290.355C666.848 263.732 641.945 253.112 620.631 245.409Z" fill="#FFDD15"/>
<path d="M541.959 163.232C541.959 163.232 533.658 192.248 536.425 196.212C539.192 200.175 545.249 202.793 545.249 202.793C545.249 202.793 545.474 231.734 526.105 231.36C506.736 230.986 489.76 189.481 489.76 189.481C489.76 189.481 502.772 191.426 506.736 189.107C510.699 186.714 519 140.797 519 140.797L541.959 163.232Z" fill="#EFBEB3"/>
<path d="M512.868 170.773C520.646 178.999 529.321 181.542 537.472 181.318C539.267 172.568 541.884 163.295 541.884 163.295L519 140.86C519.075 140.785 516.084 157.088 512.868 170.773Z" fill="#DB9B93"/>
<path d="M538.594 92.5553C562.3 91.7327 571.798 109.157 570.003 134.06C568.208 158.963 563.497 173.172 548.69 173.172C533.882 173.172 517.28 157.168 512.569 132.864C507.783 108.559 521.393 93.1536 538.594 92.5553Z" fill="#EFBEB3"/>
<path d="M554.597 132.941C554.597 132.941 557.588 139.971 560.281 141.542C564.992 144.309 564.917 149.843 559.907 149.618C554.896 149.394 552.877 144.982 554.597 132.941Z" fill="#DB9B93"/>
<path d="M543.155 130.172C544.352 130.247 545.324 131.294 545.249 132.49C545.175 133.687 544.127 134.659 542.931 134.584C541.734 134.509 540.762 133.462 540.837 132.266C540.912 131.069 541.959 130.097 543.155 130.172Z" fill="#5A4A42"/>
<path d="M564.693 131.145C565.889 131.219 566.861 132.266 566.786 133.463C566.712 134.66 565.665 135.632 564.468 135.557C563.272 135.482 562.299 134.435 562.374 133.239C562.374 132.042 563.421 131.07 564.693 131.145Z" fill="#5A4A42"/>
<path d="M540.164 149.839C540.164 149.839 553.476 149.54 564.095 154.7C564.095 154.7 560.73 161.132 552.129 161.206C543.529 161.356 540.164 149.839 540.164 149.839Z" fill="white"/>
<path d="M560.954 100.255C560.954 100.255 557.738 135.03 508.007 129.72C508.007 129.72 502.099 100.48 525.806 89.7109C549.512 78.8672 563.796 91.1317 560.954 100.255Z" fill="#90278E"/>
<path d="M571.873 125.014C572.172 127.332 570.078 125.163 566.564 124.789C564.32 124.565 561.703 125.836 561.104 124.565C560.356 122.845 563.123 121.274 565.965 121.424C568.807 121.574 571.649 123.368 571.873 125.014Z" fill="#90278E"/>
<path d="M536.499 123.448C535.976 125.692 538.294 123.747 541.809 123.673C544.053 123.673 546.52 125.168 547.268 123.897C548.166 122.252 545.548 120.457 542.707 120.307C539.865 120.233 536.873 121.728 536.499 123.448Z" fill="#90278E"/>
<path d="M520.72 137.803C520.72 137.803 505.913 119.182 504.118 130.1C502.324 141.019 518.626 143.711 518.626 143.711L520.72 137.803Z" fill="#EFBEB3"/>
<path d="M638.954 211.617C622.427 206.831 626.54 223.433 625.343 227.023C624.147 230.612 615.247 228.892 617.042 240.409C618.837 251.926 595.131 279.596 611.134 292.683C627.138 305.77 647.853 302.48 654.359 283.111C660.866 263.742 663.857 242.428 659.744 237.642C655.556 232.931 671.56 221.115 638.954 211.617Z" fill="#FFDD15"/>
<path d="M604.029 286.244C603.206 286.244 602.757 285.197 602.384 284.449C600.215 279.588 592.886 252.816 609.712 243.094L610.61 244.664C605.45 247.656 602.234 252.816 601.112 259.92C599.99 267.324 601.337 275.176 602.757 280.037C602.757 271.661 608.067 260.743 612.031 252.516C613.825 248.777 615.396 245.562 615.845 243.692L617.565 244.141C617.041 246.16 615.545 249.301 613.601 253.264C609.189 262.388 603.131 274.952 604.777 283.028C605.151 284.748 605.3 285.945 604.328 286.244C604.253 286.169 604.178 286.244 604.029 286.244Z" fill="#BF4634"/>
<path d="M523.636 238.468C521.617 238.468 519.523 238.318 517.429 238.019C493.872 234.654 484.375 198.683 484.001 197.187L485.721 196.738C485.796 197.112 495.293 233.083 517.728 236.299C527.076 237.645 534.779 235.925 540.762 231.288C546.67 226.652 550.484 219.173 551.306 210.798L553.101 210.947C552.279 219.846 548.166 227.774 541.884 232.709C536.873 236.523 530.741 238.468 523.636 238.468Z" fill="#BF4634"/>
<path d="M455.509 360.814C443.169 360.814 424.548 356.103 423.651 355.879L424.1 354.159C424.324 354.233 447.357 359.992 458.949 358.87C469.119 357.823 481.758 352.214 483.852 339.651C484.899 333.144 479.664 329.48 474.653 325.965C470.989 323.348 467.474 320.955 467.25 317.515C466.876 311.382 463.137 295.453 449.825 294.705C444.067 294.481 435.242 297.099 428.138 299.267C419.538 301.885 415.724 303.006 414.527 301.212C413.705 300.015 414.826 298.295 416.098 296.799C424.174 286.928 446.535 289.396 451.396 290.069C452.592 281.394 455.434 273.99 458.351 266.213C461.118 258.959 464.258 250.658 466.502 240.113C471.064 218.725 466.652 211.172 466.652 211.097L468.147 210.125C468.372 210.424 473.008 218.202 468.297 240.487C465.979 251.181 462.838 259.482 460.071 266.811C456.93 275.112 454.237 282.291 453.116 291.191L452.966 292.088L452.069 291.938C451.77 291.864 425.82 287.825 417.519 297.846C416.023 299.641 416.098 300.165 416.098 300.24C416.995 300.763 422.903 298.968 427.689 297.472C434.868 295.304 443.843 292.462 449.975 292.836C464.558 293.584 468.746 310.784 469.119 317.29C469.269 319.833 472.41 322.002 475.775 324.32C480.786 327.835 486.993 332.172 485.721 339.725C483.478 353.261 470.092 359.319 459.248 360.44C457.977 360.74 456.78 360.814 455.509 360.814Z" fill="#BF4634"/>
<path d="M572.77 281.238L571.125 280.64C576.285 265.608 576.285 249.53 571.125 230.011L572.845 229.562C578.005 249.455 578.005 265.833 572.77 281.238Z" fill="#BF4634"/>
<path d="M486.694 321.168C485.498 321.168 484.825 321.093 484.75 321.093L485.049 319.373C485.124 319.373 495.295 320.794 517.281 310.623C526.405 306.435 532.612 305.463 537.697 304.715C545.1 303.594 550.036 302.846 558.337 292.227L559.758 293.348C551.008 304.491 545.549 305.314 537.996 306.51C533.06 307.258 526.928 308.23 518.104 312.343C500.679 320.196 490.658 321.168 486.694 321.168Z" fill="#BF4634"/>
<path d="M230.634 9.54491C230.634 9.54491 265.035 -2.86921 310.055 4.23525C310.055 4.23525 318.356 176.687 326.058 214.004C333.761 251.321 352.158 251.321 371.078 250.723C389.999 250.124 400.693 230.008 403.684 209.218C406.675 188.503 415.5 1.01954 415.5 1.01954C415.5 1.01954 452.817 -2.94401 495.519 4.75873C495.519 4.75873 484.824 209.442 473.009 250.798C461.193 292.153 426.792 328.274 368.087 328.274C309.456 328.274 259.052 294.471 247.76 234.046C236.467 173.621 230.634 9.54491 230.634 9.54491Z" fill="#CED7DD"/>
<path d="M326.057 214.004C320.598 187.381 314.765 92.3308 311.923 39.7578C274.681 40.3561 232.054 42.7492 232.054 42.7492C234.447 93.9013 239.757 190.746 247.834 234.196C259.126 294.621 309.455 328.423 368.161 328.423C369.806 328.423 371.451 328.349 373.022 328.349L365.394 250.947C348.493 250.947 333.012 247.507 326.057 214.004Z" fill="#435790"/>
<path d="M473.008 250.869C481.683 220.507 489.76 102.05 493.424 41.2503C446.31 38.5581 413.48 42.746 413.48 42.746C410.638 99.2826 405.703 194.781 403.683 209.29C400.692 230.005 390.073 250.196 371.078 250.795C369.133 250.869 367.189 250.869 365.319 250.944L372.947 328.345C428.736 326.326 461.491 291.028 473.008 250.869Z" fill="#BF4634"/>
<path d="M452.442 346.37C452.442 346.37 456.929 332.609 465.455 332.609C470.166 332.609 490.732 347.192 495.892 348.015C501.052 348.837 515.261 343.303 523.188 344.051C531.115 344.874 539.416 362.224 539.416 364.991C539.416 367.758 527.151 353.998 527.151 353.998C527.151 353.998 536.574 364.617 534.405 367.384C532.311 370.151 519.598 354.371 519.598 354.371C519.598 354.371 527.076 368.057 524.758 367.683C522.365 367.384 515.934 356.316 515.934 356.316C515.934 356.316 520.047 367.234 518.102 367.683C516.158 368.132 510.998 360.205 510.998 360.205C510.998 360.205 502.547 363.645 495.966 354.297C495.892 354.371 445.338 364.392 452.442 346.37Z" fill="#EFBEB3"/>
</svg>
