<svg width="26" height="16" viewBox="0 0 26 16" fill="none" xmlns="http://www.w3.org/2000/svg">
<path fill-rule="evenodd" clip-rule="evenodd" d="M17.6484 0.318246C17.5475 0.41887 17.4674 0.538409 17.4128 0.670013C17.3582 0.801618 17.3301 0.942703 17.3301 1.08519C17.3301 1.22767 17.3582 1.36876 17.4128 1.50036C17.4674 1.63197 17.5475 1.75151 17.6484 1.85213L23.3831 7.5847L17.6484 13.3173C17.5476 13.418 17.4677 13.5376 17.4132 13.6692C17.3587 13.8007 17.3307 13.9418 17.3307 14.0842C17.3307 14.2267 17.3587 14.3677 17.4132 14.4993C17.4677 14.6309 17.5476 14.7504 17.6484 14.8512C17.7491 14.9519 17.8686 15.0318 18.0002 15.0863C18.1318 15.1408 18.2729 15.1688 18.4153 15.1688C18.5577 15.1688 18.6988 15.1408 18.8304 15.0863C18.962 15.0318 19.0815 14.9519 19.1822 14.8512L25.6818 8.35165C25.7826 8.25102 25.8627 8.13148 25.9173 7.99988C25.9719 7.86827 26 7.72719 26 7.5847C26 7.44222 25.9719 7.30113 25.9173 7.16953C25.8627 7.03792 25.7826 6.91839 25.6818 6.81776L19.1822 0.318246C19.0816 0.217366 18.9621 0.137329 18.8305 0.082719C18.6989 0.0281091 18.5578 0 18.4153 0C18.2728 0 18.1317 0.0281091 18.0001 0.082719C17.8685 0.137329 17.749 0.217366 17.6484 0.318246Z" fill="white"/>
<path fill-rule="evenodd" clip-rule="evenodd" d="M24.915 7.58325C24.915 7.29596 24.8009 7.02043 24.5978 6.81728C24.3946 6.61413 24.1191 6.5 23.8318 6.5H1.08348C0.796185 6.5 0.520653 6.61413 0.317505 6.81728C0.114355 7.02043 0.000226974 7.29596 0.000226974 7.58325C0.000226974 7.87055 0.114355 8.14608 0.317505 8.34923C0.520653 8.55238 0.796185 8.66651 1.08348 8.66651H23.8318C24.1191 8.66651 24.3946 8.55238 24.5978 8.34923C24.8009 8.14608 24.915 7.87055 24.915 7.58325Z" fill="white"/>
</svg>
