<svg width="48" height="48" viewBox="0 0 48 48" fill="none" xmlns="http://www.w3.org/2000/svg">
<path fill-rule="evenodd" clip-rule="evenodd" d="M24 48C37.2548 48 48 37.2548 48 24C48 10.7452 37.2548 0 24 0C10.7452 0 0 10.7452 0 24C0 37.2548 10.7452 48 24 48ZM13.0576 12.0304C15.9714 9.23311 21.4494 9 23.664 9H24.5964C31.1234 9 34.1537 11.2145 34.8531 11.7973C36.6014 13.429 37.8834 16.3429 38 20.6553C38 21.3546 38 22.054 37.8834 22.6367C37.8834 26.483 37.0676 29.5134 34.9696 31.6113C32.0558 34.4086 26.5778 34.6417 24.3633 34.6417H21.7991C21.5472 35.0615 21.1744 35.4813 20.7241 35.9883C20.5493 36.1851 20.3629 36.395 20.1674 36.6231C19.9971 36.7934 19.8369 36.9637 19.6838 37.1266C19.1031 37.744 18.6228 38.2549 18.0694 38.2549C18.0111 38.2549 17.9528 38.2257 17.8946 38.1966C17.8363 38.1674 17.778 38.1383 17.7197 38.1383C17.0204 37.9052 17.0204 36.7397 17.0204 36.7397V33.8258C14.917 33.1616 13.76 32.2871 13.2497 31.9014C13.2227 31.881 13.1976 31.862 13.1742 31.8444C11.0762 29.9796 9.79412 26.3664 10.0272 20.6553C10.1438 17.0422 10.9597 14.0118 13.0576 12.0304ZM24.4798 11.2145H23.4308C22.0322 11.2145 16.9039 11.3311 14.4562 13.5456C13.2907 14.8277 12.5914 16.6925 12.3583 19.4898V20.6553C12.1252 25.2009 13.0576 28.5809 14.6894 29.9796C14.9225 30.2127 15.8549 31.0286 18.1859 31.6113V36.8562C18.3452 36.7766 18.559 36.5336 18.7527 36.3134C18.8425 36.2113 18.928 36.1142 19.0018 36.0404L19.2349 35.6907L20.4005 34.4086L22.2653 32.3106H24.4798C25.8785 32.3106 31.0068 32.1941 33.4544 29.9796C34.8531 28.4644 35.5524 26.1333 35.6689 22.6367C35.6689 22.2871 35.6689 21.7043 35.5524 21.005V20.5388C35.4358 17.1587 34.62 14.5946 33.2213 13.429C32.9882 13.1959 30.6571 11.2145 24.4798 11.2145ZM23.3143 14.5946C22.7315 14.5946 22.7315 13.7787 23.3143 13.7787C28.2095 13.6621 32.1723 17.0422 32.1723 22.9864C32.1723 23.5692 31.3565 23.5692 31.3565 22.9864C31.3565 17.5084 27.6268 14.5946 23.3143 14.5946ZM17.954 15.0596C18.1652 14.8979 18.4312 14.8252 18.6953 14.8568C18.9437 14.8874 19.1746 15.0002 19.3515 15.1773C19.3515 15.1773 20.0508 15.9932 20.4005 16.4594C20.6443 16.7032 20.888 17.117 21.0923 17.4637C21.181 17.6143 21.2623 17.7522 21.3329 17.858C21.6825 18.4408 21.4494 19.1401 21.0998 19.3732L20.4005 19.956C20.0508 20.3057 20.0508 20.7719 20.0508 20.7719C20.0508 20.7719 21.0998 24.7347 24.946 25.7837C24.946 25.7837 25.5288 25.7837 25.7619 25.434L26.3447 24.7347C26.5778 24.385 27.2771 24.1519 27.8599 24.5016C28.6757 24.9678 29.8413 25.7837 30.5406 26.483C31.0068 26.8326 31.1234 27.4154 30.8903 27.8816C30.3075 29.0472 29.0254 30.2127 27.8599 29.863C26.5778 29.5134 23.664 27.9982 21.7991 26.483C20.8667 25.7837 19.9342 24.8512 19.3515 24.0354C18.8886 23.4799 18.4256 22.7772 17.9043 21.986C17.7693 21.7811 17.6304 21.5704 17.4866 21.3546C16.2045 19.1401 15.9714 18.0923 15.9714 18.0923C15.6218 16.8102 16.7885 15.6424 17.954 15.0596ZM24.0136 16.9256C23.4308 16.9256 23.5474 15.9932 24.1302 16.1097C27.8599 16.2263 29.9578 18.907 29.8413 22.1705C29.8413 22.7533 28.9088 22.7533 29.0254 22.1705C29.142 19.3732 27.2771 17.1587 24.0136 16.9256ZM24.4798 19.1401C23.8971 19.1401 23.8971 18.2077 24.4798 18.3243C26.3447 18.3243 27.3937 19.4898 27.5102 21.3546C27.5102 21.9374 26.6943 21.9374 26.5778 21.3546C26.5778 19.956 25.8785 19.1401 24.4798 19.1401Z" fill="white"/>
</svg>
