<svg width="30" height="30" viewBox="0 0 30 30" fill="none" xmlns="http://www.w3.org/2000/svg">
<path fill-rule="evenodd" clip-rule="evenodd" d="M15 30C23.2843 30 30 23.2843 30 15C30 6.71573 23.2843 0 15 0C6.71573 0 0 6.71573 0 15C0 23.2843 6.71573 30 15 30ZM8.16101 7.51899C9.98215 5.77069 13.4059 5.625 14.79 5.625H15.3727C19.4521 5.625 21.3461 7.00907 21.7832 7.3733C22.8758 8.39314 23.6772 10.2143 23.75 12.9096C23.75 13.3467 23.75 13.7837 23.6772 14.148C23.6772 16.5519 23.1672 18.4459 21.856 19.7571C20.0349 21.5054 16.6111 21.6511 15.227 21.6511H13.6244C13.467 21.9135 13.234 22.1758 12.9526 22.4927C12.8433 22.6157 12.7268 22.7469 12.6046 22.8894C12.4982 22.9959 12.3981 23.1023 12.3024 23.2041C11.9395 23.59 11.6392 23.9093 11.2934 23.9093C11.2569 23.9093 11.2205 23.8911 11.1841 23.8729C11.1477 23.8547 11.1113 23.8364 11.0748 23.8364C10.6378 23.6908 10.6378 22.9623 10.6378 22.9623V21.1411C9.32314 20.726 8.59999 20.1794 8.28104 19.9384C8.26419 19.9256 8.24847 19.9137 8.23385 19.9028C6.92263 18.7372 6.12132 16.479 6.26701 12.9096C6.33986 10.6514 6.84978 8.75737 8.16101 7.51899ZM15.2999 7.00907H14.6443C13.7701 7.00907 10.5649 7.08192 9.03515 8.46599C8.3067 9.26729 7.86962 10.4328 7.72393 12.1811V12.9096C7.57824 15.7506 8.16101 17.8631 9.18085 18.7372C9.32654 18.8829 9.9093 19.3929 11.3662 19.7571V23.0351C11.4658 22.9854 11.5994 22.8335 11.7205 22.6959C11.7766 22.6321 11.83 22.5713 11.8761 22.5252L12.0218 22.3067L12.7503 21.5054L13.9158 20.1942H15.2999C16.174 20.1942 19.3793 20.1213 20.909 18.7372C21.7832 17.7902 22.2202 16.3333 22.2931 14.148C22.2931 13.9294 22.2931 13.5652 22.2202 13.1281V12.8367C22.1474 10.7242 21.6375 9.1216 20.7633 8.39314C20.6176 8.24745 19.1607 7.00907 15.2999 7.00907ZM14.5714 9.1216C14.2072 9.1216 14.2072 8.61168 14.5714 8.61168C17.631 8.53883 20.1077 10.6514 20.1077 14.3665C20.1077 14.7307 19.5978 14.7307 19.5978 14.3665C19.5978 10.9427 17.2667 9.1216 14.5714 9.1216ZM11.2213 9.41225C11.3533 9.3112 11.5195 9.26572 11.6846 9.2855C11.8398 9.30464 11.9842 9.37515 12.0947 9.48583C12.0947 9.48583 12.5318 9.99575 12.7503 10.2871C12.9027 10.4395 13.055 10.6981 13.1827 10.9148C13.2382 11.0089 13.2889 11.0951 13.3331 11.1613C13.5516 11.5255 13.4059 11.9626 13.1874 12.1083L12.7503 12.4725C12.5318 12.691 12.5318 12.9824 12.5318 12.9824C12.5318 12.9824 13.1874 15.4592 15.5913 16.1148C15.5913 16.1148 15.9555 16.1148 16.1012 15.8963L16.4654 15.4592C16.6111 15.2406 17.0482 15.0949 17.4124 15.3135C17.9223 15.6049 18.6508 16.1148 19.0879 16.5519C19.3793 16.7704 19.4521 17.1346 19.3064 17.426C18.9422 18.1545 18.1409 18.8829 17.4124 18.6644C16.6111 18.4459 14.79 17.4989 13.6244 16.5519C13.0417 16.1148 12.4589 15.532 12.0947 15.0221C11.8053 14.6749 11.516 14.2358 11.1902 13.7412C11.1058 13.6132 11.019 13.4815 10.9291 13.3467C10.1278 11.9626 9.98215 11.3077 9.98215 11.3077C9.76361 10.5064 10.4928 9.77648 11.2213 9.41225ZM15.0085 10.5785C14.6443 10.5785 14.7171 9.99575 15.0814 10.0686C17.4124 10.1414 18.7236 11.8169 18.6508 13.8566C18.6508 14.2208 18.068 14.2208 18.1409 13.8566C18.2137 12.1083 17.0482 10.7242 15.0085 10.5785ZM15.2999 11.9626C14.9357 11.9626 14.9357 11.3798 15.2999 11.4527C16.4654 11.4527 17.121 12.1811 17.1939 13.3467C17.1939 13.7109 16.684 13.7109 16.6111 13.3467C16.6111 12.4725 16.174 11.9626 15.2999 11.9626Z" fill="white"/>
</svg>
